<svg width="384" height="216" viewBox="0 0 384 216" fill="none" xmlns="http://www.w3.org/2000/svg">
<rect width="384" height="216" rx="12" fill="white"/>
<path d="M384 55H0V57H384V55Z" fill="#E2E8F0" mask="url(#path-2-inside-1_901_3222)"/>
<circle cx="28" cy="28" r="4" fill="#84CC16"/>
<path d="M42.4141 21.625L44.9141 26.9297L47.4297 21.625H49.7891L46.0078 28.8359V33H43.8281V28.8359L40.0391 21.625H42.4141ZM49.8906 28.8594V28.6953C49.8906 28.0755 49.9792 27.5052 50.1562 26.9844C50.3333 26.4583 50.5911 26.0026 50.9297 25.6172C51.2682 25.2318 51.6823 24.9323 52.1719 24.7188C52.6615 24.5 53.2188 24.3906 53.8438 24.3906C54.4792 24.3906 55.0417 24.5 55.5312 24.7188C56.026 24.9323 56.4427 25.2318 56.7812 25.6172C57.1198 26.0026 57.3776 26.4583 57.5547 26.9844C57.7318 27.5052 57.8203 28.0755 57.8203 28.6953V28.8594C57.8203 29.474 57.7318 30.0443 57.5547 30.5703C57.3776 31.0911 57.1198 31.5469 56.7812 31.9375C56.4427 32.3229 56.0286 32.6224 55.5391 32.8359C55.0495 33.0495 54.4896 33.1562 53.8594 33.1562C53.2344 33.1562 52.6745 33.0495 52.1797 32.8359C51.6849 32.6224 51.2682 32.3229 50.9297 31.9375C50.5911 31.5469 50.3333 31.0911 50.1562 30.5703C49.9792 30.0443 49.8906 29.474 49.8906 28.8594ZM51.9531 28.6953V28.8594C51.9531 29.2292 51.9896 29.5755 52.0625 29.8984C52.1354 30.2214 52.2474 30.5052 52.3984 30.75C52.5495 30.9948 52.7448 31.1875 52.9844 31.3281C53.2292 31.4635 53.5208 31.5312 53.8594 31.5312C54.1927 31.5312 54.4792 31.4635 54.7188 31.3281C54.9583 31.1875 55.1536 30.9948 55.3047 30.75C55.4609 30.5052 55.5755 30.2214 55.6484 29.8984C55.7214 29.5755 55.7578 29.2292 55.7578 28.8594V28.6953C55.7578 28.3307 55.7214 27.9896 55.6484 27.6719C55.5755 27.349 55.4609 27.0651 55.3047 26.8203C55.1536 26.5703 54.9557 26.375 54.7109 26.2344C54.4714 26.0885 54.1823 26.0156 53.8438 26.0156C53.5104 26.0156 53.224 26.0885 52.9844 26.2344C52.7448 26.375 52.5495 26.5703 52.3984 26.8203C52.2474 27.0651 52.1354 27.349 52.0625 27.6719C51.9896 27.9896 51.9531 28.3307 51.9531 28.6953ZM64.3516 30.9922V24.5469H66.4297V33H64.4766L64.3516 30.9922ZM64.6172 29.2422L65.2578 29.2266C65.2578 29.7943 65.1953 30.3177 65.0703 30.7969C64.9453 31.276 64.75 31.6927 64.4844 32.0469C64.224 32.3958 63.8932 32.6693 63.4922 32.8672C63.0911 33.0599 62.6172 33.1562 62.0703 33.1562C61.6536 33.1562 61.2734 33.099 60.9297 32.9844C60.5859 32.8646 60.2891 32.6797 60.0391 32.4297C59.7943 32.1745 59.6042 31.849 59.4688 31.4531C59.3333 31.0521 59.2656 30.5703 59.2656 30.0078V24.5469H61.3281V30.0234C61.3281 30.3047 61.3594 30.5391 61.4219 30.7266C61.4896 30.9141 61.5807 31.0677 61.6953 31.1875C61.8151 31.3021 61.9531 31.3854 62.1094 31.4375C62.2708 31.4844 62.4427 31.5078 62.625 31.5078C63.125 31.5078 63.5182 31.4089 63.8047 31.2109C64.0964 31.0078 64.3047 30.737 64.4297 30.3984C64.5547 30.0547 64.6172 29.6693 64.6172 29.2422ZM70.3203 26.2734V33H68.2578V24.5469H70.2109L70.3203 26.2734ZM72.8906 24.4922L72.8594 26.4141C72.7448 26.3932 72.6146 26.3776 72.4688 26.3672C72.3281 26.3568 72.1953 26.3516 72.0703 26.3516C71.7526 26.3516 71.474 26.3958 71.2344 26.4844C70.9948 26.5677 70.7943 26.6901 70.6328 26.8516C70.4766 27.013 70.3568 27.2109 70.2734 27.4453C70.1901 27.6745 70.1432 27.9349 70.1328 28.2266L69.6875 28.1719C69.6875 27.6354 69.7422 27.138 69.8516 26.6797C69.9609 26.2214 70.1198 25.8203 70.3281 25.4766C70.5365 25.1328 70.7969 24.8672 71.1094 24.6797C71.4271 24.487 71.7917 24.3906 72.2031 24.3906C72.3177 24.3906 72.4401 24.401 72.5703 24.4219C72.7057 24.4375 72.8125 24.4609 72.8906 24.4922ZM80.4531 21.625V33H78.3047V21.625H80.4531ZM84.6406 26.3516V33H82.5781V24.5469H84.5156L84.6406 26.3516ZM84.3125 28.4688H83.7031C83.7083 27.8542 83.7917 27.2969 83.9531 26.7969C84.1146 26.2969 84.3411 25.8672 84.6328 25.5078C84.9297 25.1484 85.2812 24.8724 85.6875 24.6797C86.0938 24.487 86.5469 24.3906 87.0469 24.3906C87.4531 24.3906 87.8203 24.4479 88.1484 24.5625C88.4766 24.6771 88.7578 24.8594 88.9922 25.1094C89.2318 25.3594 89.4141 25.6875 89.5391 26.0938C89.6693 26.4948 89.7344 26.9896 89.7344 27.5781V33H87.6562V27.5625C87.6562 27.1771 87.599 26.8724 87.4844 26.6484C87.375 26.4245 87.2135 26.2656 87 26.1719C86.7917 26.0781 86.5339 26.0312 86.2266 26.0312C85.9089 26.0312 85.6302 26.0964 85.3906 26.2266C85.1562 26.3516 84.9583 26.526 84.7969 26.75C84.6406 26.974 84.5208 27.2318 84.4375 27.5234C84.3542 27.8151 84.3125 28.1302 84.3125 28.4688ZM95.0234 31.5312C95.3151 31.5312 95.5755 31.474 95.8047 31.3594C96.0339 31.2448 96.2161 31.0833 96.3516 30.875C96.4922 30.6667 96.5677 30.4245 96.5781 30.1484H98.5234C98.513 30.7214 98.3516 31.2344 98.0391 31.6875C97.7266 32.1406 97.3099 32.5 96.7891 32.7656C96.2734 33.026 95.6953 33.1562 95.0547 33.1562C94.4036 33.1562 93.8359 33.0469 93.3516 32.8281C92.8672 32.6094 92.4635 32.3047 92.1406 31.9141C91.8229 31.5234 91.5833 31.0703 91.4219 30.5547C91.2656 30.0391 91.1875 29.487 91.1875 28.8984V28.6484C91.1875 28.0599 91.2656 27.5078 91.4219 26.9922C91.5833 26.4766 91.8229 26.0234 92.1406 25.6328C92.4635 25.2422 92.8672 24.9375 93.3516 24.7188C93.8359 24.5 94.401 24.3906 95.0469 24.3906C95.7292 24.3906 96.3281 24.5234 96.8438 24.7891C97.3646 25.0547 97.7708 25.4297 98.0625 25.9141C98.3594 26.3984 98.513 26.9688 98.5234 27.625H96.5781C96.5677 27.3229 96.5 27.0521 96.375 26.8125C96.25 26.5729 96.0729 26.3802 95.8438 26.2344C95.6146 26.0885 95.3359 26.0156 95.0078 26.0156C94.6589 26.0156 94.3672 26.0885 94.1328 26.2344C93.9036 26.3802 93.724 26.5807 93.5938 26.8359C93.4688 27.0859 93.3802 27.3672 93.3281 27.6797C93.2812 27.987 93.2578 28.3099 93.2578 28.6484V28.8984C93.2578 29.2422 93.2812 29.5703 93.3281 29.8828C93.3802 30.1953 93.4688 30.4766 93.5938 30.7266C93.724 30.9714 93.9036 31.1667 94.1328 31.3125C94.3672 31.4583 94.6641 31.5312 95.0234 31.5312ZM99.5312 28.8594V28.6953C99.5312 28.0755 99.6198 27.5052 99.7969 26.9844C99.974 26.4583 100.232 26.0026 100.57 25.6172C100.909 25.2318 101.323 24.9323 101.812 24.7188C102.302 24.5 102.859 24.3906 103.484 24.3906C104.12 24.3906 104.682 24.5 105.172 24.7188C105.667 24.9323 106.083 25.2318 106.422 25.6172C106.76 26.0026 107.018 26.4583 107.195 26.9844C107.372 27.5052 107.461 28.0755 107.461 28.6953V28.8594C107.461 29.474 107.372 30.0443 107.195 30.5703C107.018 31.0911 106.76 31.5469 106.422 31.9375C106.083 32.3229 105.669 32.6224 105.18 32.8359C104.69 33.0495 104.13 33.1562 103.5 33.1562C102.875 33.1562 102.315 33.0495 101.82 32.8359C101.326 32.6224 100.909 32.3229 100.57 31.9375C100.232 31.5469 99.974 31.0911 99.7969 30.5703C99.6198 30.0443 99.5312 29.474 99.5312 28.8594ZM101.594 28.6953V28.8594C101.594 29.2292 101.63 29.5755 101.703 29.8984C101.776 30.2214 101.888 30.5052 102.039 30.75C102.19 30.9948 102.385 31.1875 102.625 31.3281C102.87 31.4635 103.161 31.5312 103.5 31.5312C103.833 31.5312 104.12 31.4635 104.359 31.3281C104.599 31.1875 104.794 30.9948 104.945 30.75C105.102 30.5052 105.216 30.2214 105.289 29.8984C105.362 29.5755 105.398 29.2292 105.398 28.8594V28.6953C105.398 28.3307 105.362 27.9896 105.289 27.6719C105.216 27.349 105.102 27.0651 104.945 26.8203C104.794 26.5703 104.596 26.375 104.352 26.2344C104.112 26.0885 103.823 26.0156 103.484 26.0156C103.151 26.0156 102.865 26.0885 102.625 26.2344C102.385 26.375 102.19 26.5703 102.039 26.8203C101.888 27.0651 101.776 27.349 101.703 27.6719C101.63 27.9896 101.594 28.3307 101.594 28.6953ZM111.016 26.2812V33H108.953V24.5469H110.898L111.016 26.2812ZM110.711 28.4688H110.078C110.078 27.8802 110.148 27.3385 110.289 26.8438C110.435 26.349 110.648 25.9193 110.93 25.5547C111.211 25.1849 111.557 24.8984 111.969 24.6953C112.385 24.4922 112.867 24.3906 113.414 24.3906C113.794 24.3906 114.143 24.4479 114.461 24.5625C114.779 24.6719 115.052 24.8464 115.281 25.0859C115.516 25.3203 115.695 25.6276 115.82 26.0078C115.945 26.3828 116.008 26.8333 116.008 27.3594V33H113.945V27.5703C113.945 27.1745 113.888 26.8646 113.773 26.6406C113.664 26.4167 113.505 26.2604 113.297 26.1719C113.089 26.0781 112.839 26.0312 112.547 26.0312C112.224 26.0312 111.945 26.0964 111.711 26.2266C111.482 26.3516 111.292 26.526 111.141 26.75C110.995 26.974 110.885 27.2318 110.812 27.5234C110.745 27.8151 110.711 28.1302 110.711 28.4688ZM115.852 28.0859L115 28.2422C115.005 27.7109 115.078 27.2135 115.219 26.75C115.359 26.2812 115.565 25.8724 115.836 25.5234C116.112 25.1693 116.453 24.8932 116.859 24.6953C117.271 24.4922 117.745 24.3906 118.281 24.3906C118.698 24.3906 119.073 24.4505 119.406 24.5703C119.745 24.6849 120.034 24.8698 120.273 25.125C120.513 25.375 120.695 25.7005 120.82 26.1016C120.951 26.5026 121.016 26.9922 121.016 27.5703V33H118.938V27.5625C118.938 27.151 118.88 26.8359 118.766 26.6172C118.656 26.3984 118.497 26.2474 118.289 26.1641C118.081 26.0755 117.836 26.0312 117.555 26.0312C117.268 26.0312 117.018 26.0859 116.805 26.1953C116.596 26.2995 116.419 26.4453 116.273 26.6328C116.133 26.8203 116.026 27.0391 115.953 27.2891C115.885 27.5339 115.852 27.7995 115.852 28.0859ZM126.664 33.1562C126.023 33.1562 125.448 33.0521 124.938 32.8438C124.427 32.6354 123.992 32.3464 123.633 31.9766C123.279 31.6016 123.005 31.1667 122.812 30.6719C122.625 30.1719 122.531 29.6354 122.531 29.0625V28.75C122.531 28.099 122.625 27.5078 122.812 26.9766C123 26.4401 123.266 25.9792 123.609 25.5938C123.953 25.2083 124.365 24.9115 124.844 24.7031C125.323 24.4948 125.852 24.3906 126.43 24.3906C127.029 24.3906 127.557 24.4922 128.016 24.6953C128.474 24.8932 128.857 25.1745 129.164 25.5391C129.471 25.9036 129.703 26.3411 129.859 26.8516C130.016 27.3568 130.094 27.9167 130.094 28.5312V29.3984H123.469V27.9766H128.062V27.8203C128.052 27.4922 127.99 27.1927 127.875 26.9219C127.76 26.6458 127.583 26.4271 127.344 26.2656C127.104 26.099 126.794 26.0156 126.414 26.0156C126.107 26.0156 125.839 26.0833 125.609 26.2188C125.385 26.349 125.198 26.5365 125.047 26.7812C124.901 27.0208 124.792 27.3073 124.719 27.6406C124.646 27.974 124.609 28.3438 124.609 28.75V29.0625C124.609 29.4167 124.656 29.7448 124.75 30.0469C124.849 30.349 124.992 30.612 125.18 30.8359C125.372 31.0547 125.602 31.2266 125.867 31.3516C126.138 31.4714 126.445 31.5312 126.789 31.5312C127.221 31.5312 127.612 31.4479 127.961 31.2812C128.315 31.1094 128.622 30.8568 128.883 30.5234L129.922 31.6016C129.745 31.862 129.505 32.112 129.203 32.3516C128.906 32.5911 128.547 32.7865 128.125 32.9375C127.703 33.0833 127.216 33.1562 126.664 33.1562Z" fill="#0F172A"/>
<path d="M37.7988 82.3359V108H33.1406V87.7676L26.9707 89.8066V86.0449L37.2715 82.3359H37.7988ZM51.0352 103.816L51 107.033C51 108.287 50.6895 109.559 50.0684 110.848C49.4473 112.137 48.6445 113.203 47.6602 114.047L45.1992 112.693C45.5156 112.166 45.8086 111.633 46.0781 111.094C46.3594 110.555 46.582 109.969 46.7461 109.336C46.9219 108.715 47.0098 108.018 47.0098 107.244V103.816H51.0352ZM72.2168 104.344V108H54.8848V104.871L63.1992 95.8887C64.0664 94.9043 64.752 94.0488 65.2559 93.3223C65.7598 92.5957 66.1172 91.9395 66.3281 91.3535C66.5508 90.7559 66.6621 90.1875 66.6621 89.6484C66.6621 88.8633 66.5215 88.1777 66.2402 87.5918C65.959 86.9941 65.5488 86.5312 65.0098 86.2031C64.4824 85.875 63.832 85.7109 63.0586 85.7109C62.2031 85.7109 61.4707 85.9102 60.8613 86.3086C60.2637 86.6953 59.8066 87.2344 59.4902 87.9258C59.1855 88.6172 59.0332 89.4082 59.0332 90.2988H54.375C54.375 88.7871 54.7266 87.4102 55.4297 86.168C56.1328 84.9141 57.1406 83.9121 58.4531 83.1621C59.7656 82.4121 61.3242 82.0371 63.1289 82.0371C64.8867 82.0371 66.375 82.3301 67.5938 82.916C68.8125 83.4902 69.7383 84.3105 70.3711 85.377C71.0039 86.4434 71.3203 87.7148 71.3203 89.1914C71.3203 90.0117 71.1855 90.8203 70.916 91.6172C70.6465 92.4141 70.2656 93.2051 69.7734 93.9902C69.293 94.7637 68.7188 95.5488 68.0508 96.3457C67.3828 97.1426 66.6387 97.957 65.8184 98.7891L60.8262 104.344H72.2168ZM92.3965 93.0059V97.3125C92.3965 99.2812 92.1973 100.963 91.7988 102.357C91.4004 103.752 90.8262 104.895 90.0762 105.785C89.3262 106.664 88.4297 107.314 87.3867 107.736C86.3438 108.146 85.1836 108.352 83.9062 108.352C82.8867 108.352 81.9375 108.223 81.0586 107.965C80.1797 107.695 79.3887 107.285 78.6855 106.734C77.9941 106.172 77.3965 105.457 76.8926 104.59C76.4004 103.723 76.0195 102.686 75.75 101.479C75.4922 100.271 75.3633 98.8828 75.3633 97.3125V93.0059C75.3633 91.0371 75.5625 89.3613 75.9609 87.9785C76.3711 86.5957 76.9512 85.4648 77.7012 84.5859C78.4512 83.707 79.3477 83.0684 80.3906 82.6699C81.4336 82.2598 82.5938 82.0547 83.8711 82.0547C84.9023 82.0547 85.8516 82.1836 86.7188 82.4414C87.5977 82.6992 88.3828 83.1035 89.0742 83.6543C89.7773 84.1934 90.375 84.8965 90.8672 85.7637C91.3594 86.6191 91.7344 87.6504 91.9922 88.8574C92.2617 90.0527 92.3965 91.4355 92.3965 93.0059ZM87.7559 97.9453V92.3555C87.7559 91.3711 87.6973 90.5156 87.5801 89.7891C87.4746 89.0508 87.3164 88.4238 87.1055 87.9082C86.8945 87.3926 86.6309 86.9766 86.3145 86.6602C85.998 86.332 85.6348 86.0918 85.2246 85.9395C84.8145 85.7871 84.3633 85.7109 83.8711 85.7109C83.2617 85.7109 82.7168 85.834 82.2363 86.0801C81.7559 86.3145 81.3516 86.6895 81.0234 87.2051C80.6953 87.7207 80.4434 88.4062 80.2676 89.2617C80.1035 90.1055 80.0215 91.1367 80.0215 92.3555V97.9453C80.0215 98.9297 80.0742 99.791 80.1797 100.529C80.2969 101.268 80.4609 101.9 80.6719 102.428C80.8945 102.955 81.1582 103.389 81.4629 103.729C81.7793 104.057 82.1426 104.303 82.5527 104.467C82.9629 104.619 83.4141 104.695 83.9062 104.695C84.5273 104.695 85.0723 104.572 85.541 104.326C86.0215 104.08 86.4258 103.693 86.7539 103.166C87.082 102.627 87.3281 101.93 87.4922 101.074C87.668 100.207 87.7559 99.1641 87.7559 97.9453ZM112.963 93.0059V97.3125C112.963 99.2812 112.764 100.963 112.365 102.357C111.967 103.752 111.393 104.895 110.643 105.785C109.893 106.664 108.996 107.314 107.953 107.736C106.91 108.146 105.75 108.352 104.473 108.352C103.453 108.352 102.504 108.223 101.625 107.965C100.746 107.695 99.9551 107.285 99.252 106.734C98.5605 106.172 97.9629 105.457 97.459 104.59C96.9668 103.723 96.5859 102.686 96.3164 101.479C96.0586 100.271 95.9297 98.8828 95.9297 97.3125V93.0059C95.9297 91.0371 96.1289 89.3613 96.5273 87.9785C96.9375 86.5957 97.5176 85.4648 98.2676 84.5859C99.0176 83.707 99.9141 83.0684 100.957 82.6699C102 82.2598 103.16 82.0547 104.438 82.0547C105.469 82.0547 106.418 82.1836 107.285 82.4414C108.164 82.6992 108.949 83.1035 109.641 83.6543C110.344 84.1934 110.941 84.8965 111.434 85.7637C111.926 86.6191 112.301 87.6504 112.559 88.8574C112.828 90.0527 112.963 91.4355 112.963 93.0059ZM108.322 97.9453V92.3555C108.322 91.3711 108.264 90.5156 108.146 89.7891C108.041 89.0508 107.883 88.4238 107.672 87.9082C107.461 87.3926 107.197 86.9766 106.881 86.6602C106.564 86.332 106.201 86.0918 105.791 85.9395C105.381 85.7871 104.93 85.7109 104.438 85.7109C103.828 85.7109 103.283 85.834 102.803 86.0801C102.322 86.3145 101.918 86.6895 101.59 87.2051C101.262 87.7207 101.01 88.4062 100.834 89.2617C100.67 90.1055 100.588 91.1367 100.588 92.3555V97.9453C100.588 98.9297 100.641 99.791 100.746 100.529C100.863 101.268 101.027 101.9 101.238 102.428C101.461 102.955 101.725 103.389 102.029 103.729C102.346 104.057 102.709 104.303 103.119 104.467C103.529 104.619 103.98 104.695 104.473 104.695C105.094 104.695 105.639 104.572 106.107 104.326C106.588 104.08 106.992 103.693 107.32 103.166C107.648 102.627 107.895 101.93 108.059 101.074C108.234 100.207 108.322 99.1641 108.322 97.9453ZM121.207 103.816L121.172 107.033C121.172 108.287 120.861 109.559 120.24 110.848C119.619 112.137 118.816 113.203 117.832 114.047L115.371 112.693C115.688 112.166 115.98 111.633 116.25 111.094C116.531 110.555 116.754 109.969 116.918 109.336C117.094 108.715 117.182 108.018 117.182 107.244V103.816H121.207ZM142.002 93.0059V97.3125C142.002 99.2812 141.803 100.963 141.404 102.357C141.006 103.752 140.432 104.895 139.682 105.785C138.932 106.664 138.035 107.314 136.992 107.736C135.949 108.146 134.789 108.352 133.512 108.352C132.492 108.352 131.543 108.223 130.664 107.965C129.785 107.695 128.994 107.285 128.291 106.734C127.6 106.172 127.002 105.457 126.498 104.59C126.006 103.723 125.625 102.686 125.355 101.479C125.098 100.271 124.969 98.8828 124.969 97.3125V93.0059C124.969 91.0371 125.168 89.3613 125.566 87.9785C125.977 86.5957 126.557 85.4648 127.307 84.5859C128.057 83.707 128.953 83.0684 129.996 82.6699C131.039 82.2598 132.199 82.0547 133.477 82.0547C134.508 82.0547 135.457 82.1836 136.324 82.4414C137.203 82.6992 137.988 83.1035 138.68 83.6543C139.383 84.1934 139.98 84.8965 140.473 85.7637C140.965 86.6191 141.34 87.6504 141.598 88.8574C141.867 90.0527 142.002 91.4355 142.002 93.0059ZM137.361 97.9453V92.3555C137.361 91.3711 137.303 90.5156 137.186 89.7891C137.08 89.0508 136.922 88.4238 136.711 87.9082C136.5 87.3926 136.236 86.9766 135.92 86.6602C135.604 86.332 135.24 86.0918 134.83 85.9395C134.42 85.7871 133.969 85.7109 133.477 85.7109C132.867 85.7109 132.322 85.834 131.842 86.0801C131.361 86.3145 130.957 86.6895 130.629 87.2051C130.301 87.7207 130.049 88.4062 129.873 89.2617C129.709 90.1055 129.627 91.1367 129.627 92.3555V97.9453C129.627 98.9297 129.68 99.791 129.785 100.529C129.902 101.268 130.066 101.9 130.277 102.428C130.5 102.955 130.764 103.389 131.068 103.729C131.385 104.057 131.748 104.303 132.158 104.467C132.568 104.619 133.02 104.695 133.512 104.695C134.133 104.695 134.678 104.572 135.146 104.326C135.627 104.08 136.031 103.693 136.359 103.166C136.688 102.627 136.934 101.93 137.098 101.074C137.273 100.207 137.361 99.1641 137.361 97.9453ZM162.568 93.0059V97.3125C162.568 99.2812 162.369 100.963 161.971 102.357C161.572 103.752 160.998 104.895 160.248 105.785C159.498 106.664 158.602 107.314 157.559 107.736C156.516 108.146 155.355 108.352 154.078 108.352C153.059 108.352 152.109 108.223 151.23 107.965C150.352 107.695 149.561 107.285 148.857 106.734C148.166 106.172 147.568 105.457 147.064 104.59C146.572 103.723 146.191 102.686 145.922 101.479C145.664 100.271 145.535 98.8828 145.535 97.3125V93.0059C145.535 91.0371 145.734 89.3613 146.133 87.9785C146.543 86.5957 147.123 85.4648 147.873 84.5859C148.623 83.707 149.52 83.0684 150.562 82.6699C151.605 82.2598 152.766 82.0547 154.043 82.0547C155.074 82.0547 156.023 82.1836 156.891 82.4414C157.77 82.6992 158.555 83.1035 159.246 83.6543C159.949 84.1934 160.547 84.8965 161.039 85.7637C161.531 86.6191 161.906 87.6504 162.164 88.8574C162.434 90.0527 162.568 91.4355 162.568 93.0059ZM157.928 97.9453V92.3555C157.928 91.3711 157.869 90.5156 157.752 89.7891C157.646 89.0508 157.488 88.4238 157.277 87.9082C157.066 87.3926 156.803 86.9766 156.486 86.6602C156.17 86.332 155.807 86.0918 155.396 85.9395C154.986 85.7871 154.535 85.7109 154.043 85.7109C153.434 85.7109 152.889 85.834 152.408 86.0801C151.928 86.3145 151.523 86.6895 151.195 87.2051C150.867 87.7207 150.615 88.4062 150.439 89.2617C150.275 90.1055 150.193 91.1367 150.193 92.3555V97.9453C150.193 98.9297 150.246 99.791 150.352 100.529C150.469 101.268 150.633 101.9 150.844 102.428C151.066 102.955 151.33 103.389 151.635 103.729C151.951 104.057 152.314 104.303 152.725 104.467C153.135 104.619 153.586 104.695 154.078 104.695C154.699 104.695 155.244 104.572 155.713 104.326C156.193 104.08 156.598 103.693 156.926 103.166C157.254 102.627 157.5 101.93 157.664 101.074C157.84 100.207 157.928 99.1641 157.928 97.9453ZM183.135 93.0059V97.3125C183.135 99.2812 182.936 100.963 182.537 102.357C182.139 103.752 181.564 104.895 180.814 105.785C180.064 106.664 179.168 107.314 178.125 107.736C177.082 108.146 175.922 108.352 174.645 108.352C173.625 108.352 172.676 108.223 171.797 107.965C170.918 107.695 170.127 107.285 169.424 106.734C168.732 106.172 168.135 105.457 167.631 104.59C167.139 103.723 166.758 102.686 166.488 101.479C166.23 100.271 166.102 98.8828 166.102 97.3125V93.0059C166.102 91.0371 166.301 89.3613 166.699 87.9785C167.109 86.5957 167.689 85.4648 168.439 84.5859C169.189 83.707 170.086 83.0684 171.129 82.6699C172.172 82.2598 173.332 82.0547 174.609 82.0547C175.641 82.0547 176.59 82.1836 177.457 82.4414C178.336 82.6992 179.121 83.1035 179.812 83.6543C180.516 84.1934 181.113 84.8965 181.605 85.7637C182.098 86.6191 182.473 87.6504 182.73 88.8574C183 90.0527 183.135 91.4355 183.135 93.0059ZM178.494 97.9453V92.3555C178.494 91.3711 178.436 90.5156 178.318 89.7891C178.213 89.0508 178.055 88.4238 177.844 87.9082C177.633 87.3926 177.369 86.9766 177.053 86.6602C176.736 86.332 176.373 86.0918 175.963 85.9395C175.553 85.7871 175.102 85.7109 174.609 85.7109C174 85.7109 173.455 85.834 172.975 86.0801C172.494 86.3145 172.09 86.6895 171.762 87.2051C171.434 87.7207 171.182 88.4062 171.006 89.2617C170.842 90.1055 170.76 91.1367 170.76 92.3555V97.9453C170.76 98.9297 170.812 99.791 170.918 100.529C171.035 101.268 171.199 101.9 171.41 102.428C171.633 102.955 171.896 103.389 172.201 103.729C172.518 104.057 172.881 104.303 173.291 104.467C173.701 104.619 174.152 104.695 174.645 104.695C175.266 104.695 175.811 104.572 176.279 104.326C176.76 104.08 177.164 103.693 177.492 103.166C177.82 102.627 178.066 101.93 178.23 101.074C178.406 100.207 178.494 99.1641 178.494 97.9453Z" fill="black"/>
<path d="M196.596 108V103.608L193.536 105.696L192.06 103.5L196.596 100.404V97.2L193.572 99.288L192.06 97.092L196.596 93.996V86.832H189.72V82.296H208.872V86.832H201.96V90.324L205.236 88.056L206.748 90.252L201.96 93.528V96.732L205.2 94.5L206.712 96.696L201.96 99.936V108H196.596Z" fill="black"/>
<path d="M26.0742 127.203L29.3965 133.628L32.7275 127.203H34.6523L30.2402 135.219V140H28.5439V135.219L24.1318 127.203H26.0742ZM35.0391 135.351V135.148C35.0391 134.463 35.1387 133.827 35.3379 133.241C35.5371 132.649 35.8242 132.137 36.1992 131.703C36.5742 131.264 37.0283 130.924 37.5615 130.684C38.0947 130.438 38.6924 130.314 39.3545 130.314C40.0225 130.314 40.623 130.438 41.1562 130.684C41.6953 130.924 42.1523 131.264 42.5273 131.703C42.9082 132.137 43.1982 132.649 43.3975 133.241C43.5967 133.827 43.6963 134.463 43.6963 135.148V135.351C43.6963 136.036 43.5967 136.672 43.3975 137.258C43.1982 137.844 42.9082 138.356 42.5273 138.796C42.1523 139.229 41.6982 139.569 41.165 139.815C40.6377 140.056 40.04 140.176 39.3721 140.176C38.7041 140.176 38.1035 140.056 37.5703 139.815C37.0371 139.569 36.5801 139.229 36.1992 138.796C35.8242 138.356 35.5371 137.844 35.3379 137.258C35.1387 136.672 35.0391 136.036 35.0391 135.351ZM36.665 135.148V135.351C36.665 135.825 36.7207 136.273 36.832 136.695C36.9434 137.111 37.1104 137.48 37.333 137.803C37.5615 138.125 37.8457 138.38 38.1855 138.567C38.5254 138.749 38.9209 138.84 39.3721 138.84C39.8174 138.84 40.207 138.749 40.541 138.567C40.8809 138.38 41.1621 138.125 41.3848 137.803C41.6074 137.48 41.7744 137.111 41.8857 136.695C42.0029 136.273 42.0615 135.825 42.0615 135.351V135.148C42.0615 134.68 42.0029 134.237 41.8857 133.821C41.7744 133.399 41.6045 133.027 41.376 132.705C41.1533 132.377 40.8721 132.119 40.5322 131.932C40.1982 131.744 39.8057 131.65 39.3545 131.65C38.9092 131.65 38.5166 131.744 38.1768 131.932C37.8428 132.119 37.5615 132.377 37.333 132.705C37.1104 133.027 36.9434 133.399 36.832 133.821C36.7207 134.237 36.665 134.68 36.665 135.148ZM51.5537 137.803V130.49H53.1885V140H51.6328L51.5537 137.803ZM51.8613 135.799L52.5381 135.781C52.5381 136.414 52.4707 137 52.3359 137.539C52.207 138.072 51.9961 138.535 51.7031 138.928C51.4102 139.32 51.0264 139.628 50.5518 139.851C50.0771 140.067 49.5 140.176 48.8203 140.176C48.3574 140.176 47.9326 140.108 47.5459 139.974C47.165 139.839 46.8369 139.631 46.5615 139.35C46.2861 139.068 46.0723 138.702 45.9199 138.251C45.7734 137.8 45.7002 137.258 45.7002 136.625V130.49H47.3262V136.643C47.3262 137.07 47.373 137.425 47.4668 137.706C47.5664 137.981 47.6982 138.201 47.8623 138.365C48.0322 138.523 48.2197 138.635 48.4248 138.699C48.6357 138.764 48.8525 138.796 49.0752 138.796C49.7666 138.796 50.3145 138.664 50.7188 138.4C51.123 138.131 51.4131 137.771 51.5889 137.319C51.7705 136.862 51.8613 136.355 51.8613 135.799ZM57.293 131.984V140H55.667V130.49H57.249L57.293 131.984ZM60.2637 130.438L60.2549 131.949C60.1201 131.92 59.9912 131.902 59.8682 131.896C59.751 131.885 59.6162 131.879 59.4639 131.879C59.0889 131.879 58.7578 131.938 58.4707 132.055C58.1836 132.172 57.9404 132.336 57.7412 132.547C57.542 132.758 57.3838 133.01 57.2666 133.303C57.1553 133.59 57.082 133.906 57.0469 134.252L56.5898 134.516C56.5898 133.941 56.6455 133.402 56.7568 132.898C56.874 132.395 57.0527 131.949 57.293 131.562C57.5332 131.17 57.8379 130.865 58.207 130.648C58.582 130.426 59.0273 130.314 59.543 130.314C59.6602 130.314 59.7949 130.329 59.9473 130.358C60.0996 130.382 60.2051 130.408 60.2637 130.438ZM68.2969 127.203V140H66.6006V127.203H68.2969ZM72.7617 132.521V140H71.1357V130.49H72.6738L72.7617 132.521ZM72.375 134.885L71.6982 134.858C71.7041 134.208 71.8008 133.607 71.9883 133.057C72.1758 132.5 72.4395 132.017 72.7793 131.606C73.1191 131.196 73.5234 130.88 73.9922 130.657C74.4668 130.429 74.9912 130.314 75.5654 130.314C76.0342 130.314 76.4561 130.379 76.8311 130.508C77.2061 130.631 77.5254 130.83 77.7891 131.105C78.0586 131.381 78.2637 131.738 78.4043 132.178C78.5449 132.611 78.6152 133.142 78.6152 133.769V140H76.9805V133.751C76.9805 133.253 76.9072 132.854 76.7607 132.556C76.6143 132.251 76.4004 132.031 76.1191 131.896C75.8379 131.756 75.4922 131.686 75.082 131.686C74.6777 131.686 74.3086 131.771 73.9746 131.94C73.6465 132.11 73.3623 132.345 73.1221 132.644C72.8877 132.942 72.7031 133.285 72.5684 133.672C72.4395 134.053 72.375 134.457 72.375 134.885ZM84.8906 138.84C85.2773 138.84 85.6348 138.761 85.9629 138.603C86.291 138.444 86.5605 138.228 86.7715 137.952C86.9824 137.671 87.1025 137.352 87.1318 136.994H88.6787C88.6494 137.557 88.459 138.081 88.1074 138.567C87.7617 139.048 87.3076 139.438 86.7451 139.736C86.1826 140.029 85.5645 140.176 84.8906 140.176C84.1758 140.176 83.5518 140.05 83.0186 139.798C82.4912 139.546 82.0518 139.2 81.7002 138.761C81.3545 138.321 81.0938 137.817 80.918 137.249C80.748 136.675 80.6631 136.068 80.6631 135.43V135.061C80.6631 134.422 80.748 133.818 80.918 133.25C81.0938 132.676 81.3545 132.169 81.7002 131.729C82.0518 131.29 82.4912 130.944 83.0186 130.692C83.5518 130.44 84.1758 130.314 84.8906 130.314C85.6348 130.314 86.2852 130.467 86.8418 130.771C87.3984 131.07 87.835 131.48 88.1514 132.002C88.4736 132.518 88.6494 133.104 88.6787 133.76H87.1318C87.1025 133.367 86.9912 133.013 86.7979 132.696C86.6104 132.38 86.3525 132.128 86.0244 131.94C85.7021 131.747 85.3242 131.65 84.8906 131.65C84.3926 131.65 83.9736 131.75 83.6338 131.949C83.2998 132.143 83.0332 132.406 82.834 132.74C82.6406 133.068 82.5 133.435 82.4121 133.839C82.3301 134.237 82.2891 134.645 82.2891 135.061V135.43C82.2891 135.846 82.3301 136.256 82.4121 136.66C82.4941 137.064 82.6318 137.431 82.8252 137.759C83.0244 138.087 83.291 138.351 83.625 138.55C83.9648 138.743 84.3867 138.84 84.8906 138.84ZM90.0762 135.351V135.148C90.0762 134.463 90.1758 133.827 90.375 133.241C90.5742 132.649 90.8613 132.137 91.2363 131.703C91.6113 131.264 92.0654 130.924 92.5986 130.684C93.1318 130.438 93.7295 130.314 94.3916 130.314C95.0596 130.314 95.6602 130.438 96.1934 130.684C96.7324 130.924 97.1895 131.264 97.5645 131.703C97.9453 132.137 98.2354 132.649 98.4346 133.241C98.6338 133.827 98.7334 134.463 98.7334 135.148V135.351C98.7334 136.036 98.6338 136.672 98.4346 137.258C98.2354 137.844 97.9453 138.356 97.5645 138.796C97.1895 139.229 96.7354 139.569 96.2021 139.815C95.6748 140.056 95.0771 140.176 94.4092 140.176C93.7412 140.176 93.1406 140.056 92.6074 139.815C92.0742 139.569 91.6172 139.229 91.2363 138.796C90.8613 138.356 90.5742 137.844 90.375 137.258C90.1758 136.672 90.0762 136.036 90.0762 135.351ZM91.7021 135.148V135.351C91.7021 135.825 91.7578 136.273 91.8691 136.695C91.9805 137.111 92.1475 137.48 92.3701 137.803C92.5986 138.125 92.8828 138.38 93.2227 138.567C93.5625 138.749 93.958 138.84 94.4092 138.84C94.8545 138.84 95.2441 138.749 95.5781 138.567C95.918 138.38 96.1992 138.125 96.4219 137.803C96.6445 137.48 96.8115 137.111 96.9229 136.695C97.04 136.273 97.0986 135.825 97.0986 135.351V135.148C97.0986 134.68 97.04 134.237 96.9229 133.821C96.8115 133.399 96.6416 133.027 96.4131 132.705C96.1904 132.377 95.9092 132.119 95.5693 131.932C95.2354 131.744 94.8428 131.65 94.3916 131.65C93.9463 131.65 93.5537 131.744 93.2139 131.932C92.8799 132.119 92.5986 132.377 92.3701 132.705C92.1475 133.027 91.9805 133.399 91.8691 133.821C91.7578 134.237 91.7021 134.68 91.7021 135.148ZM102.39 132.38V140H100.755V130.49H102.302L102.39 132.38ZM102.056 134.885L101.3 134.858C101.306 134.208 101.391 133.607 101.555 133.057C101.719 132.5 101.962 132.017 102.284 131.606C102.606 131.196 103.008 130.88 103.488 130.657C103.969 130.429 104.525 130.314 105.158 130.314C105.604 130.314 106.014 130.379 106.389 130.508C106.764 130.631 107.089 130.827 107.364 131.097C107.64 131.366 107.854 131.712 108.006 132.134C108.158 132.556 108.234 133.065 108.234 133.663V140H106.608V133.742C106.608 133.244 106.523 132.846 106.354 132.547C106.189 132.248 105.955 132.031 105.65 131.896C105.346 131.756 104.988 131.686 104.578 131.686C104.098 131.686 103.696 131.771 103.374 131.94C103.052 132.11 102.794 132.345 102.601 132.644C102.407 132.942 102.267 133.285 102.179 133.672C102.097 134.053 102.056 134.457 102.056 134.885ZM108.217 133.988L107.127 134.322C107.133 133.801 107.218 133.3 107.382 132.819C107.552 132.339 107.795 131.911 108.111 131.536C108.434 131.161 108.829 130.865 109.298 130.648C109.767 130.426 110.303 130.314 110.906 130.314C111.416 130.314 111.867 130.382 112.26 130.517C112.658 130.651 112.992 130.859 113.262 131.141C113.537 131.416 113.745 131.771 113.886 132.204C114.026 132.638 114.097 133.153 114.097 133.751V140H112.462V133.733C112.462 133.2 112.377 132.787 112.207 132.494C112.043 132.195 111.809 131.987 111.504 131.87C111.205 131.747 110.848 131.686 110.432 131.686C110.074 131.686 109.758 131.747 109.482 131.87C109.207 131.993 108.976 132.163 108.788 132.38C108.601 132.591 108.457 132.834 108.357 133.109C108.264 133.385 108.217 133.678 108.217 133.988ZM120.504 140.176C119.842 140.176 119.241 140.064 118.702 139.842C118.169 139.613 117.709 139.294 117.322 138.884C116.941 138.474 116.648 137.987 116.443 137.425C116.238 136.862 116.136 136.247 116.136 135.579V135.21C116.136 134.437 116.25 133.748 116.479 133.145C116.707 132.535 117.018 132.02 117.41 131.598C117.803 131.176 118.248 130.856 118.746 130.64C119.244 130.423 119.76 130.314 120.293 130.314C120.973 130.314 121.559 130.432 122.051 130.666C122.549 130.9 122.956 131.229 123.272 131.65C123.589 132.066 123.823 132.559 123.976 133.127C124.128 133.689 124.204 134.305 124.204 134.973V135.702H117.103V134.375H122.578V134.252C122.555 133.83 122.467 133.42 122.314 133.021C122.168 132.623 121.934 132.295 121.611 132.037C121.289 131.779 120.85 131.65 120.293 131.65C119.924 131.65 119.584 131.729 119.273 131.888C118.963 132.04 118.696 132.269 118.474 132.573C118.251 132.878 118.078 133.25 117.955 133.689C117.832 134.129 117.771 134.636 117.771 135.21V135.579C117.771 136.03 117.832 136.455 117.955 136.854C118.084 137.246 118.269 137.592 118.509 137.891C118.755 138.189 119.051 138.424 119.396 138.594C119.748 138.764 120.146 138.849 120.592 138.849C121.166 138.849 121.652 138.731 122.051 138.497C122.449 138.263 122.798 137.949 123.097 137.557L124.081 138.339C123.876 138.649 123.615 138.945 123.299 139.227C122.982 139.508 122.593 139.736 122.13 139.912C121.673 140.088 121.131 140.176 120.504 140.176ZM135.551 128.337L131.314 140H129.583L134.461 127.203H135.577L135.551 128.337ZM139.102 140L134.856 128.337L134.83 127.203H135.946L140.842 140H139.102ZM138.882 135.263V136.651H131.692V135.263H138.882ZM143.927 132.38V140H142.292V130.49H143.839L143.927 132.38ZM143.593 134.885L142.837 134.858C142.843 134.208 142.928 133.607 143.092 133.057C143.256 132.5 143.499 132.017 143.821 131.606C144.144 131.196 144.545 130.88 145.025 130.657C145.506 130.429 146.062 130.314 146.695 130.314C147.141 130.314 147.551 130.379 147.926 130.508C148.301 130.631 148.626 130.827 148.901 131.097C149.177 131.366 149.391 131.712 149.543 132.134C149.695 132.556 149.771 133.065 149.771 133.663V140H148.146V133.742C148.146 133.244 148.061 132.846 147.891 132.547C147.727 132.248 147.492 132.031 147.188 131.896C146.883 131.756 146.525 131.686 146.115 131.686C145.635 131.686 145.233 131.771 144.911 131.94C144.589 132.11 144.331 132.345 144.138 132.644C143.944 132.942 143.804 133.285 143.716 133.672C143.634 134.053 143.593 134.457 143.593 134.885ZM149.754 133.988L148.664 134.322C148.67 133.801 148.755 133.3 148.919 132.819C149.089 132.339 149.332 131.911 149.648 131.536C149.971 131.161 150.366 130.865 150.835 130.648C151.304 130.426 151.84 130.314 152.443 130.314C152.953 130.314 153.404 130.382 153.797 130.517C154.195 130.651 154.529 130.859 154.799 131.141C155.074 131.416 155.282 131.771 155.423 132.204C155.563 132.638 155.634 133.153 155.634 133.751V140H153.999V133.733C153.999 133.2 153.914 132.787 153.744 132.494C153.58 132.195 153.346 131.987 153.041 131.87C152.742 131.747 152.385 131.686 151.969 131.686C151.611 131.686 151.295 131.747 151.02 131.87C150.744 131.993 150.513 132.163 150.325 132.38C150.138 132.591 149.994 132.834 149.895 133.109C149.801 133.385 149.754 133.678 149.754 133.988ZM157.664 135.351V135.148C157.664 134.463 157.764 133.827 157.963 133.241C158.162 132.649 158.449 132.137 158.824 131.703C159.199 131.264 159.653 130.924 160.187 130.684C160.72 130.438 161.317 130.314 161.979 130.314C162.647 130.314 163.248 130.438 163.781 130.684C164.32 130.924 164.777 131.264 165.152 131.703C165.533 132.137 165.823 132.649 166.022 133.241C166.222 133.827 166.321 134.463 166.321 135.148V135.351C166.321 136.036 166.222 136.672 166.022 137.258C165.823 137.844 165.533 138.356 165.152 138.796C164.777 139.229 164.323 139.569 163.79 139.815C163.263 140.056 162.665 140.176 161.997 140.176C161.329 140.176 160.729 140.056 160.195 139.815C159.662 139.569 159.205 139.229 158.824 138.796C158.449 138.356 158.162 137.844 157.963 137.258C157.764 136.672 157.664 136.036 157.664 135.351ZM159.29 135.148V135.351C159.29 135.825 159.346 136.273 159.457 136.695C159.568 137.111 159.735 137.48 159.958 137.803C160.187 138.125 160.471 138.38 160.811 138.567C161.15 138.749 161.546 138.84 161.997 138.84C162.442 138.84 162.832 138.749 163.166 138.567C163.506 138.38 163.787 138.125 164.01 137.803C164.232 137.48 164.399 137.111 164.511 136.695C164.628 136.273 164.687 135.825 164.687 135.351V135.148C164.687 134.68 164.628 134.237 164.511 133.821C164.399 133.399 164.229 133.027 164.001 132.705C163.778 132.377 163.497 132.119 163.157 131.932C162.823 131.744 162.431 131.65 161.979 131.65C161.534 131.65 161.142 131.744 160.802 131.932C160.468 132.119 160.187 132.377 159.958 132.705C159.735 133.027 159.568 133.399 159.457 133.821C159.346 134.237 159.29 134.68 159.29 135.148ZM174.179 137.803V130.49H175.813V140H174.258L174.179 137.803ZM174.486 135.799L175.163 135.781C175.163 136.414 175.096 137 174.961 137.539C174.832 138.072 174.621 138.535 174.328 138.928C174.035 139.32 173.651 139.628 173.177 139.851C172.702 140.067 172.125 140.176 171.445 140.176C170.982 140.176 170.558 140.108 170.171 139.974C169.79 139.839 169.462 139.631 169.187 139.35C168.911 139.068 168.697 138.702 168.545 138.251C168.398 137.8 168.325 137.258 168.325 136.625V130.49H169.951V136.643C169.951 137.07 169.998 137.425 170.092 137.706C170.191 137.981 170.323 138.201 170.487 138.365C170.657 138.523 170.845 138.635 171.05 138.699C171.261 138.764 171.478 138.796 171.7 138.796C172.392 138.796 172.939 138.664 173.344 138.4C173.748 138.131 174.038 137.771 174.214 137.319C174.396 136.862 174.486 136.355 174.486 135.799ZM179.918 132.521V140H178.292V130.49H179.83L179.918 132.521ZM179.531 134.885L178.854 134.858C178.86 134.208 178.957 133.607 179.145 133.057C179.332 132.5 179.596 132.017 179.936 131.606C180.275 131.196 180.68 130.88 181.148 130.657C181.623 130.429 182.147 130.314 182.722 130.314C183.19 130.314 183.612 130.379 183.987 130.508C184.362 130.631 184.682 130.83 184.945 131.105C185.215 131.381 185.42 131.738 185.561 132.178C185.701 132.611 185.771 133.142 185.771 133.769V140H184.137V133.751C184.137 133.253 184.063 132.854 183.917 132.556C183.771 132.251 183.557 132.031 183.275 131.896C182.994 131.756 182.648 131.686 182.238 131.686C181.834 131.686 181.465 131.771 181.131 131.94C180.803 132.11 180.519 132.345 180.278 132.644C180.044 132.942 179.859 133.285 179.725 133.672C179.596 134.053 179.531 134.457 179.531 134.885ZM192.223 130.49V131.738H187.081V130.49H192.223ZM188.821 128.179H190.447V137.645C190.447 137.967 190.497 138.21 190.597 138.374C190.696 138.538 190.825 138.646 190.983 138.699C191.142 138.752 191.312 138.778 191.493 138.778C191.628 138.778 191.769 138.767 191.915 138.743C192.067 138.714 192.182 138.69 192.258 138.673L192.267 140C192.138 140.041 191.968 140.079 191.757 140.114C191.552 140.155 191.303 140.176 191.01 140.176C190.611 140.176 190.245 140.097 189.911 139.938C189.577 139.78 189.311 139.517 189.111 139.147C188.918 138.772 188.821 138.269 188.821 137.636V128.179Z" fill="#64748B"/>
<path d="M36 168.25C34.0716 168.25 32.1866 168.822 30.5832 169.893C28.9798 170.965 27.7301 172.487 26.9922 174.269C26.2542 176.05 26.0611 178.011 26.4373 179.902C26.8136 181.793 27.7422 183.531 29.1057 184.894C30.4693 186.258 32.2066 187.186 34.0979 187.563C35.9892 187.939 37.9496 187.746 39.7312 187.008C41.5127 186.27 43.0355 185.02 44.1068 183.417C45.1782 181.813 45.75 179.928 45.75 178C45.7473 175.415 44.7192 172.937 42.8913 171.109C41.0634 169.281 38.585 168.253 36 168.25ZM39.5306 177.781C39.461 177.85 39.3783 177.906 39.2872 177.943C39.1962 177.981 39.0986 178.001 39 178.001C38.9014 178.001 38.8038 177.981 38.7128 177.943C38.6218 177.906 38.539 177.85 38.4694 177.781L36.75 176.06V181.75C36.75 181.949 36.671 182.14 36.5303 182.28C36.3897 182.421 36.1989 182.5 36 182.5C35.8011 182.5 35.6103 182.421 35.4697 182.28C35.329 182.14 35.25 181.949 35.25 181.75V176.06L33.5306 177.781C33.3899 177.921 33.199 178 33 178C32.801 178 32.6101 177.921 32.4694 177.781C32.3286 177.64 32.2496 177.449 32.2496 177.25C32.2496 177.051 32.3286 176.86 32.4694 176.719L35.4694 173.719C35.539 173.65 35.6218 173.594 35.7128 173.557C35.8038 173.519 35.9014 173.499 36 173.499C36.0986 173.499 36.1962 173.519 36.2872 173.557C36.3783 173.594 36.461 173.65 36.5306 173.719L39.5306 176.719C39.6004 176.789 39.6557 176.872 39.6934 176.963C39.7312 177.054 39.7506 177.151 39.7506 177.25C39.7506 177.349 39.7312 177.446 39.6934 177.537C39.6557 177.628 39.6004 177.711 39.5306 177.781Z" fill="#84CC16"/>
<path d="M59.4365 176.802H60.5967C61.165 176.802 61.6338 176.708 62.0029 176.521C62.3779 176.327 62.6562 176.066 62.8379 175.738C63.0254 175.404 63.1191 175.029 63.1191 174.613C63.1191 174.121 63.0371 173.708 62.873 173.374C62.709 173.04 62.4629 172.788 62.1348 172.618C61.8066 172.448 61.3906 172.363 60.8867 172.363C60.4297 172.363 60.0254 172.454 59.6738 172.636C59.3281 172.812 59.0557 173.063 58.8564 173.392C58.6631 173.72 58.5664 174.106 58.5664 174.552H56.9404C56.9404 173.901 57.1045 173.31 57.4326 172.776C57.7607 172.243 58.2207 171.818 58.8125 171.502C59.4102 171.186 60.1016 171.027 60.8867 171.027C61.6602 171.027 62.3369 171.165 62.917 171.44C63.4971 171.71 63.9482 172.114 64.2705 172.653C64.5928 173.187 64.7539 173.852 64.7539 174.648C64.7539 174.971 64.6777 175.316 64.5254 175.686C64.3789 176.049 64.1475 176.389 63.8311 176.705C63.5205 177.021 63.1162 177.282 62.6182 177.487C62.1201 177.687 61.5225 177.786 60.8252 177.786H59.4365V176.802ZM59.4365 178.138V177.162H60.8252C61.6396 177.162 62.3135 177.259 62.8467 177.452C63.3799 177.646 63.7988 177.903 64.1035 178.226C64.4141 178.548 64.6309 178.902 64.7539 179.289C64.8828 179.67 64.9473 180.051 64.9473 180.432C64.9473 181.029 64.8447 181.56 64.6396 182.022C64.4404 182.485 64.1562 182.878 63.7871 183.2C63.4238 183.522 62.9961 183.766 62.5039 183.93C62.0117 184.094 61.4756 184.176 60.8955 184.176C60.3389 184.176 59.8145 184.097 59.3223 183.938C58.8359 183.78 58.4053 183.552 58.0303 183.253C57.6553 182.948 57.3623 182.576 57.1514 182.137C56.9404 181.691 56.835 181.185 56.835 180.616H58.4609C58.4609 181.062 58.5576 181.451 58.751 181.785C58.9502 182.119 59.2314 182.38 59.5947 182.567C59.9639 182.749 60.3975 182.84 60.8955 182.84C61.3936 182.84 61.8213 182.755 62.1787 182.585C62.542 182.409 62.8203 182.146 63.0137 181.794C63.2129 181.442 63.3125 181 63.3125 180.467C63.3125 179.934 63.2012 179.497 62.9785 179.157C62.7559 178.812 62.4395 178.557 62.0293 178.393C61.625 178.223 61.1475 178.138 60.5967 178.138H59.4365ZM75.5732 182.664V184H67.1973V182.831L71.3896 178.164C71.9053 177.59 72.3037 177.104 72.585 176.705C72.8721 176.301 73.0713 175.94 73.1826 175.624C73.2998 175.302 73.3584 174.974 73.3584 174.64C73.3584 174.218 73.2705 173.837 73.0947 173.497C72.9248 173.151 72.6729 172.876 72.3389 172.671C72.0049 172.466 71.6006 172.363 71.126 172.363C70.5576 172.363 70.083 172.475 69.7021 172.697C69.3271 172.914 69.0459 173.219 68.8584 173.611C68.6709 174.004 68.5771 174.455 68.5771 174.965H66.9512C66.9512 174.244 67.1094 173.585 67.4258 172.987C67.7422 172.39 68.2109 171.915 68.832 171.563C69.4531 171.206 70.2178 171.027 71.126 171.027C71.9346 171.027 72.626 171.171 73.2002 171.458C73.7744 171.739 74.2139 172.138 74.5186 172.653C74.8291 173.163 74.9844 173.761 74.9844 174.446C74.9844 174.821 74.9199 175.202 74.791 175.589C74.668 175.97 74.4951 176.351 74.2725 176.731C74.0557 177.112 73.8008 177.487 73.5078 177.856C73.2207 178.226 72.9131 178.589 72.585 178.946L69.1572 182.664H75.5732ZM77.1729 174.341V173.664C77.1729 173.178 77.2783 172.735 77.4893 172.337C77.7002 171.938 78.002 171.619 78.3945 171.379C78.7871 171.139 79.2529 171.019 79.792 171.019C80.3428 171.019 80.8115 171.139 81.1982 171.379C81.5908 171.619 81.8926 171.938 82.1035 172.337C82.3145 172.735 82.4199 173.178 82.4199 173.664V174.341C82.4199 174.815 82.3145 175.252 82.1035 175.65C81.8984 176.049 81.5996 176.368 81.207 176.608C80.8203 176.849 80.3545 176.969 79.8096 176.969C79.2646 176.969 78.793 176.849 78.3945 176.608C78.002 176.368 77.7002 176.049 77.4893 175.65C77.2783 175.252 77.1729 174.815 77.1729 174.341ZM78.3945 173.664V174.341C78.3945 174.61 78.4443 174.865 78.5439 175.105C78.6494 175.346 78.8076 175.542 79.0186 175.694C79.2295 175.841 79.4932 175.914 79.8096 175.914C80.126 175.914 80.3867 175.841 80.5918 175.694C80.7969 175.542 80.9492 175.346 81.0488 175.105C81.1484 174.865 81.1982 174.61 81.1982 174.341V173.664C81.1982 173.389 81.1455 173.131 81.04 172.891C80.9404 172.645 80.7852 172.448 80.5742 172.302C80.3691 172.149 80.1084 172.073 79.792 172.073C79.4814 172.073 79.2207 172.149 79.0098 172.302C78.8047 172.448 78.6494 172.645 78.5439 172.891C78.4443 173.131 78.3945 173.389 78.3945 173.664ZM83.4043 181.548V180.862C83.4043 180.382 83.5098 179.942 83.7207 179.544C83.9316 179.146 84.2334 178.826 84.626 178.586C85.0186 178.346 85.4844 178.226 86.0234 178.226C86.5742 178.226 87.043 178.346 87.4297 178.586C87.8223 178.826 88.124 179.146 88.335 179.544C88.5459 179.942 88.6514 180.382 88.6514 180.862V181.548C88.6514 182.028 88.5459 182.468 88.335 182.866C88.1299 183.265 87.8311 183.584 87.4385 183.824C87.0518 184.064 86.5859 184.185 86.041 184.185C85.4961 184.185 85.0273 184.064 84.6348 183.824C84.2422 183.584 83.9375 183.265 83.7207 182.866C83.5098 182.468 83.4043 182.028 83.4043 181.548ZM84.626 180.862V181.548C84.626 181.817 84.6758 182.075 84.7754 182.321C84.8809 182.562 85.0391 182.758 85.25 182.91C85.4609 183.057 85.7246 183.13 86.041 183.13C86.3574 183.13 86.6182 183.057 86.8232 182.91C87.0342 182.758 87.1895 182.562 87.2891 182.321C87.3887 182.081 87.4385 181.823 87.4385 181.548V180.862C87.4385 180.587 87.3857 180.329 87.2803 180.089C87.1807 179.849 87.0254 179.655 86.8145 179.509C86.6094 179.356 86.3457 179.28 86.0234 179.28C85.7129 179.28 85.4521 179.356 85.2412 179.509C85.0361 179.655 84.8809 179.849 84.7754 180.089C84.6758 180.329 84.626 180.587 84.626 180.862ZM86.4277 173.022L80.1787 183.024L79.2646 182.444L85.5137 172.442L86.4277 173.022ZM97.5635 184H95.9375V173.488C95.9375 172.803 96.0605 172.226 96.3066 171.757C96.5586 171.282 96.9189 170.925 97.3877 170.685C97.8564 170.438 98.4131 170.315 99.0576 170.315C99.2451 170.315 99.4326 170.327 99.6201 170.351C99.8135 170.374 100.001 170.409 100.183 170.456L100.095 171.783C99.9717 171.754 99.8311 171.733 99.6729 171.722C99.5205 171.71 99.3682 171.704 99.2158 171.704C98.8701 171.704 98.5713 171.774 98.3193 171.915C98.0732 172.05 97.8857 172.249 97.7568 172.513C97.6279 172.776 97.5635 173.102 97.5635 173.488V184ZM99.585 174.49V175.738H94.4346V174.49H99.585ZM103.021 175.984V184H101.396V174.49H102.978L103.021 175.984ZM105.992 174.438L105.983 175.949C105.849 175.92 105.72 175.902 105.597 175.896C105.479 175.885 105.345 175.879 105.192 175.879C104.817 175.879 104.486 175.938 104.199 176.055C103.912 176.172 103.669 176.336 103.47 176.547C103.271 176.758 103.112 177.01 102.995 177.303C102.884 177.59 102.811 177.906 102.775 178.252L102.318 178.516C102.318 177.941 102.374 177.402 102.485 176.898C102.603 176.395 102.781 175.949 103.021 175.562C103.262 175.17 103.566 174.865 103.936 174.648C104.311 174.426 104.756 174.314 105.271 174.314C105.389 174.314 105.523 174.329 105.676 174.358C105.828 174.382 105.934 174.408 105.992 174.438ZM106.889 179.351V179.148C106.889 178.463 106.988 177.827 107.188 177.241C107.387 176.649 107.674 176.137 108.049 175.703C108.424 175.264 108.878 174.924 109.411 174.684C109.944 174.438 110.542 174.314 111.204 174.314C111.872 174.314 112.473 174.438 113.006 174.684C113.545 174.924 114.002 175.264 114.377 175.703C114.758 176.137 115.048 176.649 115.247 177.241C115.446 177.827 115.546 178.463 115.546 179.148V179.351C115.546 180.036 115.446 180.672 115.247 181.258C115.048 181.844 114.758 182.356 114.377 182.796C114.002 183.229 113.548 183.569 113.015 183.815C112.487 184.056 111.89 184.176 111.222 184.176C110.554 184.176 109.953 184.056 109.42 183.815C108.887 183.569 108.43 183.229 108.049 182.796C107.674 182.356 107.387 181.844 107.188 181.258C106.988 180.672 106.889 180.036 106.889 179.351ZM108.515 179.148V179.351C108.515 179.825 108.57 180.273 108.682 180.695C108.793 181.111 108.96 181.48 109.183 181.803C109.411 182.125 109.695 182.38 110.035 182.567C110.375 182.749 110.771 182.84 111.222 182.84C111.667 182.84 112.057 182.749 112.391 182.567C112.73 182.38 113.012 182.125 113.234 181.803C113.457 181.48 113.624 181.111 113.735 180.695C113.853 180.273 113.911 179.825 113.911 179.351V179.148C113.911 178.68 113.853 178.237 113.735 177.821C113.624 177.399 113.454 177.027 113.226 176.705C113.003 176.377 112.722 176.119 112.382 175.932C112.048 175.744 111.655 175.65 111.204 175.65C110.759 175.65 110.366 175.744 110.026 175.932C109.692 176.119 109.411 176.377 109.183 176.705C108.96 177.027 108.793 177.399 108.682 177.821C108.57 178.237 108.515 178.68 108.515 179.148ZM119.202 176.38V184H117.567V174.49H119.114L119.202 176.38ZM118.868 178.885L118.112 178.858C118.118 178.208 118.203 177.607 118.367 177.057C118.531 176.5 118.774 176.017 119.097 175.606C119.419 175.196 119.82 174.88 120.301 174.657C120.781 174.429 121.338 174.314 121.971 174.314C122.416 174.314 122.826 174.379 123.201 174.508C123.576 174.631 123.901 174.827 124.177 175.097C124.452 175.366 124.666 175.712 124.818 176.134C124.971 176.556 125.047 177.065 125.047 177.663V184H123.421V177.742C123.421 177.244 123.336 176.846 123.166 176.547C123.002 176.248 122.768 176.031 122.463 175.896C122.158 175.756 121.801 175.686 121.391 175.686C120.91 175.686 120.509 175.771 120.187 175.94C119.864 176.11 119.606 176.345 119.413 176.644C119.22 176.942 119.079 177.285 118.991 177.672C118.909 178.053 118.868 178.457 118.868 178.885ZM125.029 177.988L123.939 178.322C123.945 177.801 124.03 177.3 124.194 176.819C124.364 176.339 124.607 175.911 124.924 175.536C125.246 175.161 125.642 174.865 126.11 174.648C126.579 174.426 127.115 174.314 127.719 174.314C128.229 174.314 128.68 174.382 129.072 174.517C129.471 174.651 129.805 174.859 130.074 175.141C130.35 175.416 130.558 175.771 130.698 176.204C130.839 176.638 130.909 177.153 130.909 177.751V184H129.274V177.733C129.274 177.2 129.189 176.787 129.02 176.494C128.855 176.195 128.621 175.987 128.316 175.87C128.018 175.747 127.66 175.686 127.244 175.686C126.887 175.686 126.57 175.747 126.295 175.87C126.02 175.993 125.788 176.163 125.601 176.38C125.413 176.591 125.27 176.834 125.17 177.109C125.076 177.385 125.029 177.678 125.029 177.988ZM139.602 170.5V184H137.967V170.5H139.602ZM147.819 182.374V177.479C147.819 177.104 147.743 176.778 147.591 176.503C147.444 176.222 147.222 176.005 146.923 175.853C146.624 175.7 146.255 175.624 145.815 175.624C145.405 175.624 145.045 175.694 144.734 175.835C144.43 175.976 144.189 176.16 144.014 176.389C143.844 176.617 143.759 176.863 143.759 177.127H142.133C142.133 176.787 142.221 176.45 142.396 176.116C142.572 175.782 142.824 175.48 143.152 175.211C143.486 174.936 143.885 174.719 144.348 174.561C144.816 174.396 145.338 174.314 145.912 174.314C146.604 174.314 147.213 174.432 147.74 174.666C148.273 174.9 148.689 175.255 148.988 175.729C149.293 176.198 149.445 176.787 149.445 177.496V181.926C149.445 182.242 149.472 182.579 149.524 182.937C149.583 183.294 149.668 183.602 149.779 183.859V184H148.083C148.001 183.812 147.937 183.563 147.89 183.253C147.843 182.937 147.819 182.644 147.819 182.374ZM148.101 178.234L148.118 179.377H146.475C146.012 179.377 145.599 179.415 145.235 179.491C144.872 179.562 144.567 179.67 144.321 179.816C144.075 179.963 143.888 180.147 143.759 180.37C143.63 180.587 143.565 180.842 143.565 181.135C143.565 181.434 143.633 181.706 143.768 181.952C143.902 182.198 144.104 182.395 144.374 182.541C144.649 182.682 144.986 182.752 145.385 182.752C145.883 182.752 146.322 182.646 146.703 182.436C147.084 182.225 147.386 181.967 147.608 181.662C147.837 181.357 147.96 181.062 147.978 180.774L148.672 181.557C148.631 181.803 148.52 182.075 148.338 182.374C148.156 182.673 147.913 182.96 147.608 183.235C147.31 183.505 146.952 183.73 146.536 183.912C146.126 184.088 145.663 184.176 145.147 184.176C144.503 184.176 143.938 184.05 143.451 183.798C142.971 183.546 142.596 183.209 142.326 182.787C142.062 182.359 141.931 181.882 141.931 181.354C141.931 180.845 142.03 180.396 142.229 180.01C142.429 179.617 142.716 179.292 143.091 179.034C143.466 178.771 143.917 178.571 144.444 178.437C144.972 178.302 145.561 178.234 146.211 178.234H148.101ZM157.54 181.478C157.54 181.243 157.487 181.026 157.382 180.827C157.282 180.622 157.074 180.438 156.758 180.273C156.447 180.104 155.979 179.957 155.352 179.834C154.824 179.723 154.347 179.591 153.919 179.438C153.497 179.286 153.137 179.102 152.838 178.885C152.545 178.668 152.319 178.413 152.161 178.12C152.003 177.827 151.924 177.484 151.924 177.092C151.924 176.717 152.006 176.362 152.17 176.028C152.34 175.694 152.577 175.398 152.882 175.141C153.192 174.883 153.564 174.681 153.998 174.534C154.432 174.388 154.915 174.314 155.448 174.314C156.21 174.314 156.86 174.449 157.399 174.719C157.938 174.988 158.352 175.349 158.639 175.8C158.926 176.245 159.069 176.74 159.069 177.285H157.443C157.443 177.021 157.364 176.767 157.206 176.521C157.054 176.269 156.828 176.061 156.529 175.896C156.236 175.732 155.876 175.65 155.448 175.65C154.997 175.65 154.631 175.721 154.35 175.861C154.074 175.996 153.872 176.169 153.743 176.38C153.62 176.591 153.559 176.813 153.559 177.048C153.559 177.224 153.588 177.382 153.646 177.522C153.711 177.657 153.822 177.783 153.98 177.9C154.139 178.012 154.361 178.117 154.648 178.217C154.936 178.316 155.302 178.416 155.747 178.516C156.526 178.691 157.168 178.902 157.672 179.148C158.176 179.395 158.551 179.696 158.797 180.054C159.043 180.411 159.166 180.845 159.166 181.354C159.166 181.771 159.078 182.151 158.902 182.497C158.732 182.843 158.483 183.142 158.155 183.394C157.833 183.64 157.446 183.833 156.995 183.974C156.55 184.108 156.049 184.176 155.492 184.176C154.654 184.176 153.945 184.026 153.365 183.728C152.785 183.429 152.346 183.042 152.047 182.567C151.748 182.093 151.599 181.592 151.599 181.064H153.233C153.257 181.51 153.386 181.864 153.62 182.128C153.854 182.386 154.142 182.57 154.481 182.682C154.821 182.787 155.158 182.84 155.492 182.84C155.938 182.84 156.31 182.781 156.608 182.664C156.913 182.547 157.145 182.386 157.303 182.181C157.461 181.976 157.54 181.741 157.54 181.478ZM165.283 174.49V175.738H160.142V174.49H165.283ZM161.882 172.179H163.508V181.645C163.508 181.967 163.558 182.21 163.657 182.374C163.757 182.538 163.886 182.646 164.044 182.699C164.202 182.752 164.372 182.778 164.554 182.778C164.688 182.778 164.829 182.767 164.976 182.743C165.128 182.714 165.242 182.69 165.318 182.673L165.327 184C165.198 184.041 165.028 184.079 164.817 184.114C164.612 184.155 164.363 184.176 164.07 184.176C163.672 184.176 163.306 184.097 162.972 183.938C162.638 183.78 162.371 183.517 162.172 183.147C161.979 182.772 161.882 182.269 161.882 181.636V172.179ZM173.272 176.38V184H171.638V174.49H173.185L173.272 176.38ZM172.938 178.885L172.183 178.858C172.188 178.208 172.273 177.607 172.438 177.057C172.602 176.5 172.845 176.017 173.167 175.606C173.489 175.196 173.891 174.88 174.371 174.657C174.852 174.429 175.408 174.314 176.041 174.314C176.486 174.314 176.896 174.379 177.271 174.508C177.646 174.631 177.972 174.827 178.247 175.097C178.522 175.366 178.736 175.712 178.889 176.134C179.041 176.556 179.117 177.065 179.117 177.663V184H177.491V177.742C177.491 177.244 177.406 176.846 177.236 176.547C177.072 176.248 176.838 176.031 176.533 175.896C176.229 175.756 175.871 175.686 175.461 175.686C174.98 175.686 174.579 175.771 174.257 175.94C173.935 176.11 173.677 176.345 173.483 176.644C173.29 176.942 173.149 177.285 173.062 177.672C172.979 178.053 172.938 178.457 172.938 178.885ZM179.1 177.988L178.01 178.322C178.016 177.801 178.101 177.3 178.265 176.819C178.435 176.339 178.678 175.911 178.994 175.536C179.316 175.161 179.712 174.865 180.181 174.648C180.649 174.426 181.186 174.314 181.789 174.314C182.299 174.314 182.75 174.382 183.143 174.517C183.541 174.651 183.875 174.859 184.145 175.141C184.42 175.416 184.628 175.771 184.769 176.204C184.909 176.638 184.979 177.153 184.979 177.751V184H183.345V177.733C183.345 177.2 183.26 176.787 183.09 176.494C182.926 176.195 182.691 175.987 182.387 175.87C182.088 175.747 181.73 175.686 181.314 175.686C180.957 175.686 180.641 175.747 180.365 175.87C180.09 175.993 179.858 176.163 179.671 176.38C179.483 176.591 179.34 176.834 179.24 177.109C179.146 177.385 179.1 177.678 179.1 177.988ZM187.01 179.351V179.148C187.01 178.463 187.109 177.827 187.309 177.241C187.508 176.649 187.795 176.137 188.17 175.703C188.545 175.264 188.999 174.924 189.532 174.684C190.065 174.438 190.663 174.314 191.325 174.314C191.993 174.314 192.594 174.438 193.127 174.684C193.666 174.924 194.123 175.264 194.498 175.703C194.879 176.137 195.169 176.649 195.368 177.241C195.567 177.827 195.667 178.463 195.667 179.148V179.351C195.667 180.036 195.567 180.672 195.368 181.258C195.169 181.844 194.879 182.356 194.498 182.796C194.123 183.229 193.669 183.569 193.136 183.815C192.608 184.056 192.011 184.176 191.343 184.176C190.675 184.176 190.074 184.056 189.541 183.815C189.008 183.569 188.551 183.229 188.17 182.796C187.795 182.356 187.508 181.844 187.309 181.258C187.109 180.672 187.01 180.036 187.01 179.351ZM188.636 179.148V179.351C188.636 179.825 188.691 180.273 188.803 180.695C188.914 181.111 189.081 181.48 189.304 181.803C189.532 182.125 189.816 182.38 190.156 182.567C190.496 182.749 190.892 182.84 191.343 182.84C191.788 182.84 192.178 182.749 192.512 182.567C192.852 182.38 193.133 182.125 193.355 181.803C193.578 181.48 193.745 181.111 193.856 180.695C193.974 180.273 194.032 179.825 194.032 179.351V179.148C194.032 178.68 193.974 178.237 193.856 177.821C193.745 177.399 193.575 177.027 193.347 176.705C193.124 176.377 192.843 176.119 192.503 175.932C192.169 175.744 191.776 175.65 191.325 175.65C190.88 175.65 190.487 175.744 190.147 175.932C189.813 176.119 189.532 176.377 189.304 176.705C189.081 177.027 188.914 177.399 188.803 177.821C188.691 178.237 188.636 178.68 188.636 179.148ZM199.332 176.521V184H197.706V174.49H199.244L199.332 176.521ZM198.945 178.885L198.269 178.858C198.274 178.208 198.371 177.607 198.559 177.057C198.746 176.5 199.01 176.017 199.35 175.606C199.689 175.196 200.094 174.88 200.562 174.657C201.037 174.429 201.562 174.314 202.136 174.314C202.604 174.314 203.026 174.379 203.401 174.508C203.776 174.631 204.096 174.83 204.359 175.105C204.629 175.381 204.834 175.738 204.975 176.178C205.115 176.611 205.186 177.142 205.186 177.769V184H203.551V177.751C203.551 177.253 203.478 176.854 203.331 176.556C203.185 176.251 202.971 176.031 202.689 175.896C202.408 175.756 202.062 175.686 201.652 175.686C201.248 175.686 200.879 175.771 200.545 175.94C200.217 176.11 199.933 176.345 199.692 176.644C199.458 176.942 199.273 177.285 199.139 177.672C199.01 178.053 198.945 178.457 198.945 178.885ZM211.637 174.49V175.738H206.495V174.49H211.637ZM208.235 172.179H209.861V181.645C209.861 181.967 209.911 182.21 210.011 182.374C210.11 182.538 210.239 182.646 210.397 182.699C210.556 182.752 210.726 182.778 210.907 182.778C211.042 182.778 211.183 182.767 211.329 182.743C211.481 182.714 211.596 182.69 211.672 182.673L211.681 184C211.552 184.041 211.382 184.079 211.171 184.114C210.966 184.155 210.717 184.176 210.424 184.176C210.025 184.176 209.659 184.097 209.325 183.938C208.991 183.78 208.725 183.517 208.525 183.147C208.332 182.772 208.235 182.269 208.235 181.636V172.179ZM215.17 170.5V184H213.544V170.5H215.17ZM214.783 178.885L214.106 178.858C214.112 178.208 214.209 177.607 214.396 177.057C214.584 176.5 214.848 176.017 215.188 175.606C215.527 175.196 215.932 174.88 216.4 174.657C216.875 174.429 217.399 174.314 217.974 174.314C218.442 174.314 218.864 174.379 219.239 174.508C219.614 174.631 219.934 174.83 220.197 175.105C220.467 175.381 220.672 175.738 220.812 176.178C220.953 176.611 221.023 177.142 221.023 177.769V184H219.389V177.751C219.389 177.253 219.315 176.854 219.169 176.556C219.022 176.251 218.809 176.031 218.527 175.896C218.246 175.756 217.9 175.686 217.49 175.686C217.086 175.686 216.717 175.771 216.383 175.94C216.055 176.11 215.771 176.345 215.53 176.644C215.296 176.942 215.111 177.285 214.977 177.672C214.848 178.053 214.783 178.457 214.783 178.885Z" fill="black"/>
</svg>
