<svg width="588" height="284" viewBox="0 0 588 284" fill="none" xmlns="http://www.w3.org/2000/svg">
<rect width="588" height="284" rx="12" fill="white"/>
<path d="M588 55H0V57H588V55Z" fill="#E2E8F0" mask="url(#path-2-inside-1_901_3307)"/>
<path d="M27.375 21.625V33H25.2266V21.625H27.375ZM31.5625 26.3516V33H29.5V24.5469H31.4375L31.5625 26.3516ZM31.2344 28.4688H30.625C30.6302 27.8542 30.7135 27.2969 30.875 26.7969C31.0365 26.2969 31.263 25.8672 31.5547 25.5078C31.8516 25.1484 32.2031 24.8724 32.6094 24.6797C33.0156 24.487 33.4688 24.3906 33.9688 24.3906C34.375 24.3906 34.7422 24.4479 35.0703 24.5625C35.3984 24.6771 35.6797 24.8594 35.9141 25.1094C36.1536 25.3594 36.3359 25.6875 36.4609 26.0938C36.5911 26.4948 36.6562 26.9896 36.6562 27.5781V33H34.5781V27.5625C34.5781 27.1771 34.5208 26.8724 34.4062 26.6484C34.2969 26.4245 34.1354 26.2656 33.9219 26.1719C33.7135 26.0781 33.4557 26.0312 33.1484 26.0312C32.8307 26.0312 32.5521 26.0964 32.3125 26.2266C32.0781 26.3516 31.8802 26.526 31.7188 26.75C31.5625 26.974 31.4427 27.2318 31.3594 27.5234C31.276 27.8151 31.2344 28.1302 31.2344 28.4688ZM41.9453 31.5312C42.237 31.5312 42.4974 31.474 42.7266 31.3594C42.9557 31.2448 43.138 31.0833 43.2734 30.875C43.4141 30.6667 43.4896 30.4245 43.5 30.1484H45.4453C45.4349 30.7214 45.2734 31.2344 44.9609 31.6875C44.6484 32.1406 44.2318 32.5 43.7109 32.7656C43.1953 33.026 42.6172 33.1562 41.9766 33.1562C41.3255 33.1562 40.7578 33.0469 40.2734 32.8281C39.7891 32.6094 39.3854 32.3047 39.0625 31.9141C38.7448 31.5234 38.5052 31.0703 38.3438 30.5547C38.1875 30.0391 38.1094 29.487 38.1094 28.8984V28.6484C38.1094 28.0599 38.1875 27.5078 38.3438 26.9922C38.5052 26.4766 38.7448 26.0234 39.0625 25.6328C39.3854 25.2422 39.7891 24.9375 40.2734 24.7188C40.7578 24.5 41.3229 24.3906 41.9688 24.3906C42.651 24.3906 43.25 24.5234 43.7656 24.7891C44.2865 25.0547 44.6927 25.4297 44.9844 25.9141C45.2812 26.3984 45.4349 26.9688 45.4453 27.625H43.5C43.4896 27.3229 43.4219 27.0521 43.2969 26.8125C43.1719 26.5729 42.9948 26.3802 42.7656 26.2344C42.5365 26.0885 42.2578 26.0156 41.9297 26.0156C41.5807 26.0156 41.2891 26.0885 41.0547 26.2344C40.8255 26.3802 40.6458 26.5807 40.5156 26.8359C40.3906 27.0859 40.3021 27.3672 40.25 27.6797C40.2031 27.987 40.1797 28.3099 40.1797 28.6484V28.8984C40.1797 29.2422 40.2031 29.5703 40.25 29.8828C40.3021 30.1953 40.3906 30.4766 40.5156 30.7266C40.6458 30.9714 40.8255 31.1667 41.0547 31.3125C41.2891 31.4583 41.5859 31.5312 41.9453 31.5312ZM46.4531 28.8594V28.6953C46.4531 28.0755 46.5417 27.5052 46.7188 26.9844C46.8958 26.4583 47.1536 26.0026 47.4922 25.6172C47.8307 25.2318 48.2448 24.9323 48.7344 24.7188C49.224 24.5 49.7812 24.3906 50.4062 24.3906C51.0417 24.3906 51.6042 24.5 52.0938 24.7188C52.5885 24.9323 53.0052 25.2318 53.3438 25.6172C53.6823 26.0026 53.9401 26.4583 54.1172 26.9844C54.2943 27.5052 54.3828 28.0755 54.3828 28.6953V28.8594C54.3828 29.474 54.2943 30.0443 54.1172 30.5703C53.9401 31.0911 53.6823 31.5469 53.3438 31.9375C53.0052 32.3229 52.5911 32.6224 52.1016 32.8359C51.612 33.0495 51.0521 33.1562 50.4219 33.1562C49.7969 33.1562 49.237 33.0495 48.7422 32.8359C48.2474 32.6224 47.8307 32.3229 47.4922 31.9375C47.1536 31.5469 46.8958 31.0911 46.7188 30.5703C46.5417 30.0443 46.4531 29.474 46.4531 28.8594ZM48.5156 28.6953V28.8594C48.5156 29.2292 48.5521 29.5755 48.625 29.8984C48.6979 30.2214 48.8099 30.5052 48.9609 30.75C49.112 30.9948 49.3073 31.1875 49.5469 31.3281C49.7917 31.4635 50.0833 31.5312 50.4219 31.5312C50.7552 31.5312 51.0417 31.4635 51.2812 31.3281C51.5208 31.1875 51.7161 30.9948 51.8672 30.75C52.0234 30.5052 52.138 30.2214 52.2109 29.8984C52.2839 29.5755 52.3203 29.2292 52.3203 28.8594V28.6953C52.3203 28.3307 52.2839 27.9896 52.2109 27.6719C52.138 27.349 52.0234 27.0651 51.8672 26.8203C51.7161 26.5703 51.5182 26.375 51.2734 26.2344C51.0339 26.0885 50.7448 26.0156 50.4062 26.0156C50.0729 26.0156 49.7865 26.0885 49.5469 26.2344C49.3073 26.375 49.112 26.5703 48.9609 26.8203C48.8099 27.0651 48.6979 27.349 48.625 27.6719C48.5521 27.9896 48.5156 28.3307 48.5156 28.6953ZM57.9375 26.2812V33H55.875V24.5469H57.8203L57.9375 26.2812ZM57.6328 28.4688H57C57 27.8802 57.0703 27.3385 57.2109 26.8438C57.3568 26.349 57.5703 25.9193 57.8516 25.5547C58.1328 25.1849 58.4792 24.8984 58.8906 24.6953C59.3073 24.4922 59.7891 24.3906 60.3359 24.3906C60.7161 24.3906 61.0651 24.4479 61.3828 24.5625C61.7005 24.6719 61.974 24.8464 62.2031 25.0859C62.4375 25.3203 62.6172 25.6276 62.7422 26.0078C62.8672 26.3828 62.9297 26.8333 62.9297 27.3594V33H60.8672V27.5703C60.8672 27.1745 60.8099 26.8646 60.6953 26.6406C60.5859 26.4167 60.4271 26.2604 60.2188 26.1719C60.0104 26.0781 59.7604 26.0312 59.4688 26.0312C59.1458 26.0312 58.8672 26.0964 58.6328 26.2266C58.4036 26.3516 58.2135 26.526 58.0625 26.75C57.9167 26.974 57.8073 27.2318 57.7344 27.5234C57.6667 27.8151 57.6328 28.1302 57.6328 28.4688ZM62.7734 28.0859L61.9219 28.2422C61.9271 27.7109 62 27.2135 62.1406 26.75C62.2812 26.2812 62.487 25.8724 62.7578 25.5234C63.0339 25.1693 63.375 24.8932 63.7812 24.6953C64.1927 24.4922 64.6667 24.3906 65.2031 24.3906C65.6198 24.3906 65.9948 24.4505 66.3281 24.5703C66.6667 24.6849 66.9557 24.8698 67.1953 25.125C67.4349 25.375 67.6172 25.7005 67.7422 26.1016C67.8724 26.5026 67.9375 26.9922 67.9375 27.5703V33H65.8594V27.5625C65.8594 27.151 65.8021 26.8359 65.6875 26.6172C65.5781 26.3984 65.4193 26.2474 65.2109 26.1641C65.0026 26.0755 64.7578 26.0312 64.4766 26.0312C64.1901 26.0312 63.9401 26.0859 63.7266 26.1953C63.5182 26.2995 63.3411 26.4453 63.1953 26.6328C63.0547 26.8203 62.9479 27.0391 62.875 27.2891C62.8073 27.5339 62.7734 27.7995 62.7734 28.0859ZM73.5859 33.1562C72.9453 33.1562 72.3698 33.0521 71.8594 32.8438C71.349 32.6354 70.9141 32.3464 70.5547 31.9766C70.2005 31.6016 69.9271 31.1667 69.7344 30.6719C69.5469 30.1719 69.4531 29.6354 69.4531 29.0625V28.75C69.4531 28.099 69.5469 27.5078 69.7344 26.9766C69.9219 26.4401 70.1875 25.9792 70.5312 25.5938C70.875 25.2083 71.2865 24.9115 71.7656 24.7031C72.2448 24.4948 72.7734 24.3906 73.3516 24.3906C73.9505 24.3906 74.4792 24.4922 74.9375 24.6953C75.3958 24.8932 75.7786 25.1745 76.0859 25.5391C76.3932 25.9036 76.625 26.3411 76.7812 26.8516C76.9375 27.3568 77.0156 27.9167 77.0156 28.5312V29.3984H70.3906V27.9766H74.9844V27.8203C74.974 27.4922 74.9115 27.1927 74.7969 26.9219C74.6823 26.6458 74.5052 26.4271 74.2656 26.2656C74.026 26.099 73.7161 26.0156 73.3359 26.0156C73.0286 26.0156 72.7604 26.0833 72.5312 26.2188C72.3073 26.349 72.1198 26.5365 71.9688 26.7812C71.8229 27.0208 71.7135 27.3073 71.6406 27.6406C71.5677 27.974 71.5312 28.3438 71.5312 28.75V29.0625C71.5312 29.4167 71.5781 29.7448 71.6719 30.0469C71.7708 30.349 71.9141 30.612 72.1016 30.8359C72.2943 31.0547 72.5234 31.2266 72.7891 31.3516C73.0599 31.4714 73.3672 31.5312 73.7109 31.5312C74.1432 31.5312 74.5339 31.4479 74.8828 31.2812C75.237 31.1094 75.5443 30.8568 75.8047 30.5234L76.8438 31.6016C76.6667 31.862 76.4271 32.112 76.125 32.3516C75.8281 32.5911 75.4688 32.7865 75.0469 32.9375C74.625 33.0833 74.138 33.1562 73.5859 33.1562ZM86.4922 27.3125V28.9453H82.2188V27.3125H86.4922ZM99.9375 31.3125V33H93.8906V31.3125H99.9375ZM94.5469 21.625V33H92.3984V21.625H94.5469ZM99.1484 26.3203V27.9688H93.8906V26.3203H99.1484ZM99.9141 21.625V23.3203H93.8906V21.625H99.9141ZM102.891 24.5469L104.398 27.2344L105.93 24.5469H108.172L105.688 28.6875L108.273 33H106.031L104.414 30.1797L102.789 33H100.547L103.125 28.6875L100.656 24.5469H102.891ZM111.43 26.1719V36.25H109.359V24.5469H111.273L111.43 26.1719ZM116.859 28.6875V28.8516C116.859 29.4661 116.786 30.0365 116.641 30.5625C116.5 31.0833 116.292 31.5391 116.016 31.9297C115.74 32.3151 115.396 32.6172 114.984 32.8359C114.578 33.0495 114.109 33.1562 113.578 33.1562C113.057 33.1562 112.604 33.0573 112.219 32.8594C111.833 32.6562 111.508 32.3698 111.242 32C110.977 31.6302 110.763 31.2005 110.602 30.7109C110.445 30.2161 110.328 29.6771 110.25 29.0938V28.5703C110.328 27.9505 110.445 27.388 110.602 26.8828C110.763 26.3724 110.977 25.9323 111.242 25.5625C111.508 25.1875 111.831 24.8984 112.211 24.6953C112.596 24.4922 113.047 24.3906 113.562 24.3906C114.099 24.3906 114.57 24.4922 114.977 24.6953C115.388 24.8984 115.734 25.1901 116.016 25.5703C116.297 25.9505 116.508 26.4036 116.648 26.9297C116.789 27.4557 116.859 28.0417 116.859 28.6875ZM114.789 28.8516V28.6875C114.789 28.3125 114.755 27.9661 114.688 27.6484C114.62 27.3255 114.516 27.0443 114.375 26.8047C114.234 26.5599 114.052 26.3698 113.828 26.2344C113.604 26.099 113.333 26.0312 113.016 26.0312C112.698 26.0312 112.424 26.0833 112.195 26.1875C111.966 26.2917 111.779 26.4401 111.633 26.6328C111.487 26.8255 111.372 27.0547 111.289 27.3203C111.211 27.5807 111.159 27.8698 111.133 28.1875V29.4844C111.18 29.8698 111.271 30.2161 111.406 30.5234C111.542 30.8307 111.74 31.0755 112 31.2578C112.266 31.4401 112.609 31.5312 113.031 31.5312C113.349 31.5312 113.62 31.4609 113.844 31.3203C114.068 31.1797 114.25 30.987 114.391 30.7422C114.531 30.4922 114.633 30.2057 114.695 29.8828C114.758 29.5599 114.789 29.2161 114.789 28.8516ZM122.164 33.1562C121.523 33.1562 120.948 33.0521 120.438 32.8438C119.927 32.6354 119.492 32.3464 119.133 31.9766C118.779 31.6016 118.505 31.1667 118.312 30.6719C118.125 30.1719 118.031 29.6354 118.031 29.0625V28.75C118.031 28.099 118.125 27.5078 118.312 26.9766C118.5 26.4401 118.766 25.9792 119.109 25.5938C119.453 25.2083 119.865 24.9115 120.344 24.7031C120.823 24.4948 121.352 24.3906 121.93 24.3906C122.529 24.3906 123.057 24.4922 123.516 24.6953C123.974 24.8932 124.357 25.1745 124.664 25.5391C124.971 25.9036 125.203 26.3411 125.359 26.8516C125.516 27.3568 125.594 27.9167 125.594 28.5312V29.3984H118.969V27.9766H123.562V27.8203C123.552 27.4922 123.49 27.1927 123.375 26.9219C123.26 26.6458 123.083 26.4271 122.844 26.2656C122.604 26.099 122.294 26.0156 121.914 26.0156C121.607 26.0156 121.339 26.0833 121.109 26.2188C120.885 26.349 120.698 26.5365 120.547 26.7812C120.401 27.0208 120.292 27.3073 120.219 27.6406C120.146 27.974 120.109 28.3438 120.109 28.75V29.0625C120.109 29.4167 120.156 29.7448 120.25 30.0469C120.349 30.349 120.492 30.612 120.68 30.8359C120.872 31.0547 121.102 31.2266 121.367 31.3516C121.638 31.4714 121.945 31.5312 122.289 31.5312C122.721 31.5312 123.112 31.4479 123.461 31.2812C123.815 31.1094 124.122 30.8568 124.383 30.5234L125.422 31.6016C125.245 31.862 125.005 32.112 124.703 32.3516C124.406 32.5911 124.047 32.7865 123.625 32.9375C123.203 33.0833 122.716 33.1562 122.164 33.1562ZM129 26.3516V33H126.938V24.5469H128.875L129 26.3516ZM128.672 28.4688H128.062C128.068 27.8542 128.151 27.2969 128.312 26.7969C128.474 26.2969 128.701 25.8672 128.992 25.5078C129.289 25.1484 129.641 24.8724 130.047 24.6797C130.453 24.487 130.906 24.3906 131.406 24.3906C131.812 24.3906 132.18 24.4479 132.508 24.5625C132.836 24.6771 133.117 24.8594 133.352 25.1094C133.591 25.3594 133.773 25.6875 133.898 26.0938C134.029 26.4948 134.094 26.9896 134.094 27.5781V33H132.016V27.5625C132.016 27.1771 131.958 26.8724 131.844 26.6484C131.734 26.4245 131.573 26.2656 131.359 26.1719C131.151 26.0781 130.893 26.0312 130.586 26.0312C130.268 26.0312 129.99 26.0964 129.75 26.2266C129.516 26.3516 129.318 26.526 129.156 26.75C129 26.974 128.88 27.2318 128.797 27.5234C128.714 27.8151 128.672 28.1302 128.672 28.4688ZM140.562 30.6875C140.562 30.5104 140.516 30.3516 140.422 30.2109C140.328 30.0703 140.151 29.9427 139.891 29.8281C139.635 29.7083 139.26 29.5964 138.766 29.4922C138.328 29.3984 137.924 29.2812 137.555 29.1406C137.185 29 136.867 28.8307 136.602 28.6328C136.336 28.4297 136.128 28.1927 135.977 27.9219C135.831 27.6458 135.758 27.3281 135.758 26.9688C135.758 26.6198 135.833 26.2917 135.984 25.9844C136.135 25.6719 136.354 25.3984 136.641 25.1641C136.927 24.9245 137.276 24.737 137.688 24.6016C138.099 24.4609 138.562 24.3906 139.078 24.3906C139.797 24.3906 140.414 24.5078 140.93 24.7422C141.451 24.9766 141.849 25.2995 142.125 25.7109C142.401 26.1172 142.539 26.5755 142.539 27.0859H140.477C140.477 26.862 140.424 26.6589 140.32 26.4766C140.221 26.2943 140.068 26.1484 139.859 26.0391C139.651 25.9245 139.388 25.8672 139.07 25.8672C138.784 25.8672 138.542 25.9141 138.344 26.0078C138.151 26.1016 138.005 26.224 137.906 26.375C137.807 26.526 137.758 26.6927 137.758 26.875C137.758 27.0104 137.784 27.1328 137.836 27.2422C137.893 27.3464 137.984 27.4427 138.109 27.5312C138.234 27.6198 138.404 27.7005 138.617 27.7734C138.836 27.8464 139.104 27.9167 139.422 27.9844C140.052 28.1094 140.602 28.276 141.07 28.4844C141.544 28.6875 141.914 28.9583 142.18 29.2969C142.445 29.6354 142.578 30.0677 142.578 30.5938C142.578 30.9688 142.497 31.3125 142.336 31.625C142.174 31.9323 141.94 32.2005 141.633 32.4297C141.326 32.6589 140.958 32.8385 140.531 32.9688C140.104 33.0938 139.622 33.1562 139.086 33.1562C138.31 33.1562 137.654 33.0182 137.117 32.7422C136.581 32.4609 136.174 32.1068 135.898 31.6797C135.622 31.2474 135.484 30.7995 135.484 30.3359H137.461C137.477 30.6641 137.565 30.9271 137.727 31.125C137.888 31.3229 138.091 31.4661 138.336 31.5547C138.586 31.638 138.849 31.6797 139.125 31.6797C139.438 31.6797 139.701 31.638 139.914 31.5547C140.128 31.4661 140.289 31.349 140.398 31.2031C140.508 31.0521 140.562 30.8802 140.562 30.6875ZM147.945 33.1562C147.305 33.1562 146.729 33.0521 146.219 32.8438C145.708 32.6354 145.273 32.3464 144.914 31.9766C144.56 31.6016 144.286 31.1667 144.094 30.6719C143.906 30.1719 143.812 29.6354 143.812 29.0625V28.75C143.812 28.099 143.906 27.5078 144.094 26.9766C144.281 26.4401 144.547 25.9792 144.891 25.5938C145.234 25.2083 145.646 24.9115 146.125 24.7031C146.604 24.4948 147.133 24.3906 147.711 24.3906C148.31 24.3906 148.839 24.4922 149.297 24.6953C149.755 24.8932 150.138 25.1745 150.445 25.5391C150.753 25.9036 150.984 26.3411 151.141 26.8516C151.297 27.3568 151.375 27.9167 151.375 28.5312V29.3984H144.75V27.9766H149.344V27.8203C149.333 27.4922 149.271 27.1927 149.156 26.9219C149.042 26.6458 148.865 26.4271 148.625 26.2656C148.385 26.099 148.076 26.0156 147.695 26.0156C147.388 26.0156 147.12 26.0833 146.891 26.2188C146.667 26.349 146.479 26.5365 146.328 26.7812C146.182 27.0208 146.073 27.3073 146 27.6406C145.927 27.974 145.891 28.3438 145.891 28.75V29.0625C145.891 29.4167 145.938 29.7448 146.031 30.0469C146.13 30.349 146.273 30.612 146.461 30.8359C146.654 31.0547 146.883 31.2266 147.148 31.3516C147.419 31.4714 147.727 31.5312 148.07 31.5312C148.503 31.5312 148.893 31.4479 149.242 31.2812C149.596 31.1094 149.904 30.8568 150.164 30.5234L151.203 31.6016C151.026 31.862 150.786 32.112 150.484 32.3516C150.188 32.5911 149.828 32.7865 149.406 32.9375C148.984 33.0833 148.497 33.1562 147.945 33.1562Z" fill="#0F172A"/>
<path d="M565 217L102 217" stroke="#CBD5E1" stroke-dasharray="3 3"/>
<path d="M565 141L102 141" stroke="#CBD5E1" stroke-dasharray="3 3"/>
<path d="M565 179L102 179" stroke="#CBD5E1" stroke-dasharray="3 3"/>
<path d="M565 103L102 103" stroke="#CBD5E1" stroke-dasharray="3 3"/>
<path d="M26.6729 97.4014H27.5752C28.0173 97.4014 28.3818 97.3285 28.6689 97.1826C28.9606 97.0322 29.1771 96.8294 29.3184 96.5742C29.4642 96.3145 29.5371 96.0228 29.5371 95.6992C29.5371 95.3164 29.4733 94.9951 29.3457 94.7354C29.2181 94.4756 29.0267 94.2796 28.7715 94.1475C28.5163 94.0153 28.1927 93.9492 27.8008 93.9492C27.4453 93.9492 27.1309 94.0199 26.8574 94.1611C26.5885 94.2979 26.3766 94.4938 26.2217 94.749C26.0713 95.0042 25.9961 95.305 25.9961 95.6514H24.7314C24.7314 95.1455 24.859 94.6852 25.1143 94.2705C25.3695 93.8558 25.7272 93.5254 26.1875 93.2793C26.6523 93.0332 27.1901 92.9102 27.8008 92.9102C28.4023 92.9102 28.9287 93.0173 29.3799 93.2314C29.8311 93.4411 30.182 93.7555 30.4326 94.1748C30.6833 94.5895 30.8086 95.1068 30.8086 95.7266C30.8086 95.9772 30.7493 96.2461 30.6309 96.5332C30.5169 96.8158 30.3369 97.0801 30.0908 97.3262C29.8493 97.5723 29.5348 97.7751 29.1475 97.9346C28.7601 98.0895 28.2952 98.167 27.7529 98.167H26.6729V97.4014ZM26.6729 98.4404V97.6816H27.7529C28.3864 97.6816 28.9105 97.7568 29.3252 97.9072C29.7399 98.0576 30.0658 98.2581 30.3027 98.5088C30.5443 98.7594 30.7129 99.0352 30.8086 99.3359C30.9089 99.6322 30.959 99.9284 30.959 100.225C30.959 100.689 30.8792 101.102 30.7197 101.462C30.5648 101.822 30.3438 102.127 30.0566 102.378C29.7741 102.629 29.4414 102.818 29.0586 102.945C28.6758 103.073 28.2588 103.137 27.8076 103.137C27.3747 103.137 26.9668 103.075 26.584 102.952C26.2057 102.829 25.8708 102.651 25.5791 102.419C25.2874 102.182 25.0596 101.893 24.8955 101.551C24.7314 101.204 24.6494 100.81 24.6494 100.368H25.9141C25.9141 100.715 25.9893 101.018 26.1396 101.277C26.2946 101.537 26.5133 101.74 26.7959 101.886C27.083 102.027 27.4202 102.098 27.8076 102.098C28.195 102.098 28.5277 102.032 28.8057 101.899C29.0882 101.763 29.3047 101.558 29.4551 101.284C29.61 101.011 29.6875 100.667 29.6875 100.252C29.6875 99.8372 29.6009 99.4977 29.4277 99.2334C29.2546 98.9645 29.0085 98.7663 28.6895 98.6387C28.375 98.5065 28.0036 98.4404 27.5752 98.4404H26.6729ZM34.1172 92.5V93.375C34.1172 93.6484 34.0693 93.9378 33.9736 94.2432C33.8825 94.5439 33.748 94.8356 33.5703 95.1182C33.3926 95.3962 33.1784 95.64 32.9277 95.8496L32.2031 95.3506C32.4173 95.0498 32.5791 94.7422 32.6885 94.4277C32.8024 94.1087 32.8594 93.7646 32.8594 93.3955V92.5H34.1172ZM41.7529 97.2305V98.748C41.7529 99.5638 41.68 100.252 41.5342 100.812C41.3883 101.373 41.1787 101.824 40.9053 102.166C40.6318 102.508 40.3014 102.756 39.9141 102.911C39.5312 103.062 39.0983 103.137 38.6152 103.137C38.2324 103.137 37.8792 103.089 37.5557 102.993C37.2321 102.897 36.9404 102.745 36.6807 102.535C36.4255 102.321 36.2067 102.043 36.0244 101.701C35.8421 101.359 35.7031 100.945 35.6074 100.457C35.5117 99.9694 35.4639 99.3997 35.4639 98.748V97.2305C35.4639 96.4147 35.5368 95.7311 35.6826 95.1797C35.833 94.6283 36.0449 94.1862 36.3184 93.8535C36.5918 93.5163 36.9199 93.2747 37.3027 93.1289C37.6901 92.9831 38.123 92.9102 38.6016 92.9102C38.9889 92.9102 39.3444 92.958 39.668 93.0537C39.9961 93.1449 40.2878 93.293 40.543 93.498C40.7982 93.6986 41.0146 93.9674 41.1924 94.3047C41.3747 94.6374 41.5137 95.0452 41.6094 95.5283C41.7051 96.0114 41.7529 96.5788 41.7529 97.2305ZM40.4814 98.9531V97.0186C40.4814 96.5719 40.4541 96.18 40.3994 95.8428C40.3493 95.501 40.2741 95.2093 40.1738 94.9678C40.0736 94.7262 39.946 94.5303 39.791 94.3799C39.6406 94.2295 39.4652 94.1201 39.2646 94.0518C39.0687 93.9788 38.8477 93.9424 38.6016 93.9424C38.3008 93.9424 38.0342 93.9993 37.8018 94.1133C37.5693 94.2227 37.3734 94.3981 37.2139 94.6396C37.0589 94.8812 36.9404 95.1979 36.8584 95.5898C36.7764 95.9818 36.7354 96.458 36.7354 97.0186V98.9531C36.7354 99.3997 36.7604 99.7939 36.8105 100.136C36.8652 100.478 36.945 100.774 37.0498 101.024C37.1546 101.271 37.2822 101.473 37.4326 101.633C37.583 101.792 37.7562 101.911 37.9521 101.988C38.1527 102.061 38.3737 102.098 38.6152 102.098C38.9251 102.098 39.1963 102.038 39.4287 101.92C39.6611 101.801 39.8548 101.617 40.0098 101.366C40.1693 101.111 40.2878 100.785 40.3652 100.389C40.4427 99.9876 40.4814 99.5091 40.4814 98.9531ZM49.6279 97.2305V98.748C49.6279 99.5638 49.555 100.252 49.4092 100.812C49.2633 101.373 49.0537 101.824 48.7803 102.166C48.5068 102.508 48.1764 102.756 47.7891 102.911C47.4062 103.062 46.9733 103.137 46.4902 103.137C46.1074 103.137 45.7542 103.089 45.4307 102.993C45.1071 102.897 44.8154 102.745 44.5557 102.535C44.3005 102.321 44.0817 102.043 43.8994 101.701C43.7171 101.359 43.5781 100.945 43.4824 100.457C43.3867 99.9694 43.3389 99.3997 43.3389 98.748V97.2305C43.3389 96.4147 43.4118 95.7311 43.5576 95.1797C43.708 94.6283 43.9199 94.1862 44.1934 93.8535C44.4668 93.5163 44.7949 93.2747 45.1777 93.1289C45.5651 92.9831 45.998 92.9102 46.4766 92.9102C46.8639 92.9102 47.2194 92.958 47.543 93.0537C47.8711 93.1449 48.1628 93.293 48.418 93.498C48.6732 93.6986 48.8896 93.9674 49.0674 94.3047C49.2497 94.6374 49.3887 95.0452 49.4844 95.5283C49.5801 96.0114 49.6279 96.5788 49.6279 97.2305ZM48.3564 98.9531V97.0186C48.3564 96.5719 48.3291 96.18 48.2744 95.8428C48.2243 95.501 48.1491 95.2093 48.0488 94.9678C47.9486 94.7262 47.821 94.5303 47.666 94.3799C47.5156 94.2295 47.3402 94.1201 47.1396 94.0518C46.9437 93.9788 46.7227 93.9424 46.4766 93.9424C46.1758 93.9424 45.9092 93.9993 45.6768 94.1133C45.4443 94.2227 45.2484 94.3981 45.0889 94.6396C44.9339 94.8812 44.8154 95.1979 44.7334 95.5898C44.6514 95.9818 44.6104 96.458 44.6104 97.0186V98.9531C44.6104 99.3997 44.6354 99.7939 44.6855 100.136C44.7402 100.478 44.82 100.774 44.9248 101.024C45.0296 101.271 45.1572 101.473 45.3076 101.633C45.458 101.792 45.6312 101.911 45.8271 101.988C46.0277 102.061 46.2487 102.098 46.4902 102.098C46.8001 102.098 47.0713 102.038 47.3037 101.92C47.5361 101.801 47.7298 101.617 47.8848 101.366C48.0443 101.111 48.1628 100.785 48.2402 100.389C48.3177 99.9876 48.3564 99.5091 48.3564 98.9531ZM57.5029 97.2305V98.748C57.5029 99.5638 57.43 100.252 57.2842 100.812C57.1383 101.373 56.9287 101.824 56.6553 102.166C56.3818 102.508 56.0514 102.756 55.6641 102.911C55.2812 103.062 54.8483 103.137 54.3652 103.137C53.9824 103.137 53.6292 103.089 53.3057 102.993C52.9821 102.897 52.6904 102.745 52.4307 102.535C52.1755 102.321 51.9567 102.043 51.7744 101.701C51.5921 101.359 51.4531 100.945 51.3574 100.457C51.2617 99.9694 51.2139 99.3997 51.2139 98.748V97.2305C51.2139 96.4147 51.2868 95.7311 51.4326 95.1797C51.583 94.6283 51.7949 94.1862 52.0684 93.8535C52.3418 93.5163 52.6699 93.2747 53.0527 93.1289C53.4401 92.9831 53.873 92.9102 54.3516 92.9102C54.7389 92.9102 55.0944 92.958 55.418 93.0537C55.7461 93.1449 56.0378 93.293 56.293 93.498C56.5482 93.6986 56.7646 93.9674 56.9424 94.3047C57.1247 94.6374 57.2637 95.0452 57.3594 95.5283C57.4551 96.0114 57.5029 96.5788 57.5029 97.2305ZM56.2314 98.9531V97.0186C56.2314 96.5719 56.2041 96.18 56.1494 95.8428C56.0993 95.501 56.0241 95.2093 55.9238 94.9678C55.8236 94.7262 55.696 94.5303 55.541 94.3799C55.3906 94.2295 55.2152 94.1201 55.0146 94.0518C54.8187 93.9788 54.5977 93.9424 54.3516 93.9424C54.0508 93.9424 53.7842 93.9993 53.5518 94.1133C53.3193 94.2227 53.1234 94.3981 52.9639 94.6396C52.8089 94.8812 52.6904 95.1979 52.6084 95.5898C52.5264 95.9818 52.4854 96.458 52.4854 97.0186V98.9531C52.4854 99.3997 52.5104 99.7939 52.5605 100.136C52.6152 100.478 52.695 100.774 52.7998 101.024C52.9046 101.271 53.0322 101.473 53.1826 101.633C53.333 101.792 53.5062 101.911 53.7021 101.988C53.9027 102.061 54.1237 102.098 54.3652 102.098C54.6751 102.098 54.9463 102.038 55.1787 101.92C55.4111 101.801 55.6048 101.617 55.7598 101.366C55.9193 101.111 56.0378 100.785 56.1152 100.389C56.1927 99.9876 56.2314 99.5091 56.2314 98.9531ZM60.5449 92.5V93.375C60.5449 93.6484 60.4971 93.9378 60.4014 94.2432C60.3102 94.5439 60.1758 94.8356 59.998 95.1182C59.8203 95.3962 59.6061 95.64 59.3555 95.8496L58.6309 95.3506C58.8451 95.0498 59.0068 94.7422 59.1162 94.4277C59.2301 94.1087 59.2871 93.7646 59.2871 93.3955V92.5H60.5449ZM68.1807 97.2305V98.748C68.1807 99.5638 68.1077 100.252 67.9619 100.812C67.8161 101.373 67.6064 101.824 67.333 102.166C67.0596 102.508 66.7292 102.756 66.3418 102.911C65.959 103.062 65.526 103.137 65.043 103.137C64.6602 103.137 64.307 103.089 63.9834 102.993C63.6598 102.897 63.3682 102.745 63.1084 102.535C62.8532 102.321 62.6344 102.043 62.4521 101.701C62.2699 101.359 62.1309 100.945 62.0352 100.457C61.9395 99.9694 61.8916 99.3997 61.8916 98.748V97.2305C61.8916 96.4147 61.9645 95.7311 62.1104 95.1797C62.2607 94.6283 62.4727 94.1862 62.7461 93.8535C63.0195 93.5163 63.3477 93.2747 63.7305 93.1289C64.1178 92.9831 64.5508 92.9102 65.0293 92.9102C65.4167 92.9102 65.7721 92.958 66.0957 93.0537C66.4238 93.1449 66.7155 93.293 66.9707 93.498C67.2259 93.6986 67.4424 93.9674 67.6201 94.3047C67.8024 94.6374 67.9414 95.0452 68.0371 95.5283C68.1328 96.0114 68.1807 96.5788 68.1807 97.2305ZM66.9092 98.9531V97.0186C66.9092 96.5719 66.8818 96.18 66.8271 95.8428C66.777 95.501 66.7018 95.2093 66.6016 94.9678C66.5013 94.7262 66.3737 94.5303 66.2188 94.3799C66.0684 94.2295 65.8929 94.1201 65.6924 94.0518C65.4964 93.9788 65.2754 93.9424 65.0293 93.9424C64.7285 93.9424 64.4619 93.9993 64.2295 94.1133C63.9971 94.2227 63.8011 94.3981 63.6416 94.6396C63.4867 94.8812 63.3682 95.1979 63.2861 95.5898C63.2041 95.9818 63.1631 96.458 63.1631 97.0186V98.9531C63.1631 99.3997 63.1882 99.7939 63.2383 100.136C63.293 100.478 63.3727 100.774 63.4775 101.024C63.5824 101.271 63.71 101.473 63.8604 101.633C64.0107 101.792 64.1839 101.911 64.3799 101.988C64.5804 102.061 64.8014 102.098 65.043 102.098C65.3529 102.098 65.624 102.038 65.8564 101.92C66.0889 101.801 66.2826 101.617 66.4375 101.366C66.597 101.111 66.7155 100.785 66.793 100.389C66.8704 99.9876 66.9092 99.5091 66.9092 98.9531ZM76.0557 97.2305V98.748C76.0557 99.5638 75.9827 100.252 75.8369 100.812C75.6911 101.373 75.4814 101.824 75.208 102.166C74.9346 102.508 74.6042 102.756 74.2168 102.911C73.834 103.062 73.401 103.137 72.918 103.137C72.5352 103.137 72.182 103.089 71.8584 102.993C71.5348 102.897 71.2432 102.745 70.9834 102.535C70.7282 102.321 70.5094 102.043 70.3271 101.701C70.1449 101.359 70.0059 100.945 69.9102 100.457C69.8145 99.9694 69.7666 99.3997 69.7666 98.748V97.2305C69.7666 96.4147 69.8395 95.7311 69.9854 95.1797C70.1357 94.6283 70.3477 94.1862 70.6211 93.8535C70.8945 93.5163 71.2227 93.2747 71.6055 93.1289C71.9928 92.9831 72.4258 92.9102 72.9043 92.9102C73.2917 92.9102 73.6471 92.958 73.9707 93.0537C74.2988 93.1449 74.5905 93.293 74.8457 93.498C75.1009 93.6986 75.3174 93.9674 75.4951 94.3047C75.6774 94.6374 75.8164 95.0452 75.9121 95.5283C76.0078 96.0114 76.0557 96.5788 76.0557 97.2305ZM74.7842 98.9531V97.0186C74.7842 96.5719 74.7568 96.18 74.7021 95.8428C74.652 95.501 74.5768 95.2093 74.4766 94.9678C74.3763 94.7262 74.2487 94.5303 74.0938 94.3799C73.9434 94.2295 73.7679 94.1201 73.5674 94.0518C73.3714 93.9788 73.1504 93.9424 72.9043 93.9424C72.6035 93.9424 72.3369 93.9993 72.1045 94.1133C71.8721 94.2227 71.6761 94.3981 71.5166 94.6396C71.3617 94.8812 71.2432 95.1979 71.1611 95.5898C71.0791 95.9818 71.0381 96.458 71.0381 97.0186V98.9531C71.0381 99.3997 71.0632 99.7939 71.1133 100.136C71.168 100.478 71.2477 100.774 71.3525 101.024C71.4574 101.271 71.585 101.473 71.7354 101.633C71.8857 101.792 72.0589 101.911 72.2549 101.988C72.4554 102.061 72.6764 102.098 72.918 102.098C73.2279 102.098 73.499 102.038 73.7314 101.92C73.9639 101.801 74.1576 101.617 74.3125 101.366C74.472 101.111 74.5905 100.785 74.668 100.389C74.7454 99.9876 74.7842 99.5091 74.7842 98.9531ZM83.9307 97.2305V98.748C83.9307 99.5638 83.8577 100.252 83.7119 100.812C83.5661 101.373 83.3564 101.824 83.083 102.166C82.8096 102.508 82.4792 102.756 82.0918 102.911C81.709 103.062 81.276 103.137 80.793 103.137C80.4102 103.137 80.057 103.089 79.7334 102.993C79.4098 102.897 79.1182 102.745 78.8584 102.535C78.6032 102.321 78.3844 102.043 78.2021 101.701C78.0199 101.359 77.8809 100.945 77.7852 100.457C77.6895 99.9694 77.6416 99.3997 77.6416 98.748V97.2305C77.6416 96.4147 77.7145 95.7311 77.8604 95.1797C78.0107 94.6283 78.2227 94.1862 78.4961 93.8535C78.7695 93.5163 79.0977 93.2747 79.4805 93.1289C79.8678 92.9831 80.3008 92.9102 80.7793 92.9102C81.1667 92.9102 81.5221 92.958 81.8457 93.0537C82.1738 93.1449 82.4655 93.293 82.7207 93.498C82.9759 93.6986 83.1924 93.9674 83.3701 94.3047C83.5524 94.6374 83.6914 95.0452 83.7871 95.5283C83.8828 96.0114 83.9307 96.5788 83.9307 97.2305ZM82.6592 98.9531V97.0186C82.6592 96.5719 82.6318 96.18 82.5771 95.8428C82.527 95.501 82.4518 95.2093 82.3516 94.9678C82.2513 94.7262 82.1237 94.5303 81.9688 94.3799C81.8184 94.2295 81.6429 94.1201 81.4424 94.0518C81.2464 93.9788 81.0254 93.9424 80.7793 93.9424C80.4785 93.9424 80.2119 93.9993 79.9795 94.1133C79.7471 94.2227 79.5511 94.3981 79.3916 94.6396C79.2367 94.8812 79.1182 95.1979 79.0361 95.5898C78.9541 95.9818 78.9131 96.458 78.9131 97.0186V98.9531C78.9131 99.3997 78.9382 99.7939 78.9883 100.136C79.043 100.478 79.1227 100.774 79.2275 101.024C79.3324 101.271 79.46 101.473 79.6104 101.633C79.7607 101.792 79.9339 101.911 80.1299 101.988C80.3304 102.061 80.5514 102.098 80.793 102.098C81.1029 102.098 81.374 102.038 81.6064 101.92C81.8389 101.801 82.0326 101.617 82.1875 101.366C82.347 101.111 82.4655 100.785 82.543 100.389C82.6204 99.9876 82.6592 99.5091 82.6592 98.9531Z" fill="#71717A"/>
<path d="M31.3486 139.961V141H24.834V140.091L28.0947 136.461C28.4958 136.014 28.8057 135.636 29.0244 135.326C29.2477 135.012 29.4027 134.731 29.4893 134.485C29.5804 134.235 29.626 133.979 29.626 133.72C29.626 133.392 29.5576 133.095 29.4209 132.831C29.2887 132.562 29.0928 132.348 28.833 132.188C28.5732 132.029 28.2588 131.949 27.8896 131.949C27.4476 131.949 27.0785 132.036 26.7822 132.209C26.4906 132.378 26.2718 132.615 26.126 132.92C25.9801 133.225 25.9072 133.576 25.9072 133.973H24.6426C24.6426 133.412 24.7656 132.899 25.0117 132.435C25.2578 131.97 25.6224 131.601 26.1055 131.327C26.5885 131.049 27.1833 130.91 27.8896 130.91C28.5186 130.91 29.0563 131.022 29.5029 131.245C29.9495 131.464 30.2913 131.774 30.5283 132.175C30.7699 132.571 30.8906 133.036 30.8906 133.569C30.8906 133.861 30.8405 134.157 30.7402 134.458C30.6445 134.754 30.5101 135.05 30.3369 135.347C30.1683 135.643 29.9701 135.935 29.7422 136.222C29.5189 136.509 29.2796 136.791 29.0244 137.069L26.3584 139.961H31.3486ZM34.1172 130.5V131.375C34.1172 131.648 34.0693 131.938 33.9736 132.243C33.8825 132.544 33.748 132.836 33.5703 133.118C33.3926 133.396 33.1784 133.64 32.9277 133.85L32.2031 133.351C32.4173 133.05 32.5791 132.742 32.6885 132.428C32.8024 132.109 32.8594 131.765 32.8594 131.396V130.5H34.1172ZM41.7529 135.23V136.748C41.7529 137.564 41.68 138.252 41.5342 138.812C41.3883 139.373 41.1787 139.824 40.9053 140.166C40.6318 140.508 40.3014 140.756 39.9141 140.911C39.5312 141.062 39.0983 141.137 38.6152 141.137C38.2324 141.137 37.8792 141.089 37.5557 140.993C37.2321 140.897 36.9404 140.745 36.6807 140.535C36.4255 140.321 36.2067 140.043 36.0244 139.701C35.8421 139.359 35.7031 138.945 35.6074 138.457C35.5117 137.969 35.4639 137.4 35.4639 136.748V135.23C35.4639 134.415 35.5368 133.731 35.6826 133.18C35.833 132.628 36.0449 132.186 36.3184 131.854C36.5918 131.516 36.9199 131.275 37.3027 131.129C37.6901 130.983 38.123 130.91 38.6016 130.91C38.9889 130.91 39.3444 130.958 39.668 131.054C39.9961 131.145 40.2878 131.293 40.543 131.498C40.7982 131.699 41.0146 131.967 41.1924 132.305C41.3747 132.637 41.5137 133.045 41.6094 133.528C41.7051 134.011 41.7529 134.579 41.7529 135.23ZM40.4814 136.953V135.019C40.4814 134.572 40.4541 134.18 40.3994 133.843C40.3493 133.501 40.2741 133.209 40.1738 132.968C40.0736 132.726 39.946 132.53 39.791 132.38C39.6406 132.229 39.4652 132.12 39.2646 132.052C39.0687 131.979 38.8477 131.942 38.6016 131.942C38.3008 131.942 38.0342 131.999 37.8018 132.113C37.5693 132.223 37.3734 132.398 37.2139 132.64C37.0589 132.881 36.9404 133.198 36.8584 133.59C36.7764 133.982 36.7354 134.458 36.7354 135.019V136.953C36.7354 137.4 36.7604 137.794 36.8105 138.136C36.8652 138.478 36.945 138.774 37.0498 139.024C37.1546 139.271 37.2822 139.473 37.4326 139.633C37.583 139.792 37.7562 139.911 37.9521 139.988C38.1527 140.061 38.3737 140.098 38.6152 140.098C38.9251 140.098 39.1963 140.038 39.4287 139.92C39.6611 139.801 39.8548 139.617 40.0098 139.366C40.1693 139.111 40.2878 138.785 40.3652 138.389C40.4427 137.988 40.4814 137.509 40.4814 136.953ZM49.6279 135.23V136.748C49.6279 137.564 49.555 138.252 49.4092 138.812C49.2633 139.373 49.0537 139.824 48.7803 140.166C48.5068 140.508 48.1764 140.756 47.7891 140.911C47.4062 141.062 46.9733 141.137 46.4902 141.137C46.1074 141.137 45.7542 141.089 45.4307 140.993C45.1071 140.897 44.8154 140.745 44.5557 140.535C44.3005 140.321 44.0817 140.043 43.8994 139.701C43.7171 139.359 43.5781 138.945 43.4824 138.457C43.3867 137.969 43.3389 137.4 43.3389 136.748V135.23C43.3389 134.415 43.4118 133.731 43.5576 133.18C43.708 132.628 43.9199 132.186 44.1934 131.854C44.4668 131.516 44.7949 131.275 45.1777 131.129C45.5651 130.983 45.998 130.91 46.4766 130.91C46.8639 130.91 47.2194 130.958 47.543 131.054C47.8711 131.145 48.1628 131.293 48.418 131.498C48.6732 131.699 48.8896 131.967 49.0674 132.305C49.2497 132.637 49.3887 133.045 49.4844 133.528C49.5801 134.011 49.6279 134.579 49.6279 135.23ZM48.3564 136.953V135.019C48.3564 134.572 48.3291 134.18 48.2744 133.843C48.2243 133.501 48.1491 133.209 48.0488 132.968C47.9486 132.726 47.821 132.53 47.666 132.38C47.5156 132.229 47.3402 132.12 47.1396 132.052C46.9437 131.979 46.7227 131.942 46.4766 131.942C46.1758 131.942 45.9092 131.999 45.6768 132.113C45.4443 132.223 45.2484 132.398 45.0889 132.64C44.9339 132.881 44.8154 133.198 44.7334 133.59C44.6514 133.982 44.6104 134.458 44.6104 135.019V136.953C44.6104 137.4 44.6354 137.794 44.6855 138.136C44.7402 138.478 44.82 138.774 44.9248 139.024C45.0296 139.271 45.1572 139.473 45.3076 139.633C45.458 139.792 45.6312 139.911 45.8271 139.988C46.0277 140.061 46.2487 140.098 46.4902 140.098C46.8001 140.098 47.0713 140.038 47.3037 139.92C47.5361 139.801 47.7298 139.617 47.8848 139.366C48.0443 139.111 48.1628 138.785 48.2402 138.389C48.3177 137.988 48.3564 137.509 48.3564 136.953ZM57.5029 135.23V136.748C57.5029 137.564 57.43 138.252 57.2842 138.812C57.1383 139.373 56.9287 139.824 56.6553 140.166C56.3818 140.508 56.0514 140.756 55.6641 140.911C55.2812 141.062 54.8483 141.137 54.3652 141.137C53.9824 141.137 53.6292 141.089 53.3057 140.993C52.9821 140.897 52.6904 140.745 52.4307 140.535C52.1755 140.321 51.9567 140.043 51.7744 139.701C51.5921 139.359 51.4531 138.945 51.3574 138.457C51.2617 137.969 51.2139 137.4 51.2139 136.748V135.23C51.2139 134.415 51.2868 133.731 51.4326 133.18C51.583 132.628 51.7949 132.186 52.0684 131.854C52.3418 131.516 52.6699 131.275 53.0527 131.129C53.4401 130.983 53.873 130.91 54.3516 130.91C54.7389 130.91 55.0944 130.958 55.418 131.054C55.7461 131.145 56.0378 131.293 56.293 131.498C56.5482 131.699 56.7646 131.967 56.9424 132.305C57.1247 132.637 57.2637 133.045 57.3594 133.528C57.4551 134.011 57.5029 134.579 57.5029 135.23ZM56.2314 136.953V135.019C56.2314 134.572 56.2041 134.18 56.1494 133.843C56.0993 133.501 56.0241 133.209 55.9238 132.968C55.8236 132.726 55.696 132.53 55.541 132.38C55.3906 132.229 55.2152 132.12 55.0146 132.052C54.8187 131.979 54.5977 131.942 54.3516 131.942C54.0508 131.942 53.7842 131.999 53.5518 132.113C53.3193 132.223 53.1234 132.398 52.9639 132.64C52.8089 132.881 52.6904 133.198 52.6084 133.59C52.5264 133.982 52.4854 134.458 52.4854 135.019V136.953C52.4854 137.4 52.5104 137.794 52.5605 138.136C52.6152 138.478 52.695 138.774 52.7998 139.024C52.9046 139.271 53.0322 139.473 53.1826 139.633C53.333 139.792 53.5062 139.911 53.7021 139.988C53.9027 140.061 54.1237 140.098 54.3652 140.098C54.6751 140.098 54.9463 140.038 55.1787 139.92C55.4111 139.801 55.6048 139.617 55.7598 139.366C55.9193 139.111 56.0378 138.785 56.1152 138.389C56.1927 137.988 56.2314 137.509 56.2314 136.953ZM60.5449 130.5V131.375C60.5449 131.648 60.4971 131.938 60.4014 132.243C60.3102 132.544 60.1758 132.836 59.998 133.118C59.8203 133.396 59.6061 133.64 59.3555 133.85L58.6309 133.351C58.8451 133.05 59.0068 132.742 59.1162 132.428C59.2301 132.109 59.2871 131.765 59.2871 131.396V130.5H60.5449ZM68.1807 135.23V136.748C68.1807 137.564 68.1077 138.252 67.9619 138.812C67.8161 139.373 67.6064 139.824 67.333 140.166C67.0596 140.508 66.7292 140.756 66.3418 140.911C65.959 141.062 65.526 141.137 65.043 141.137C64.6602 141.137 64.307 141.089 63.9834 140.993C63.6598 140.897 63.3682 140.745 63.1084 140.535C62.8532 140.321 62.6344 140.043 62.4521 139.701C62.2699 139.359 62.1309 138.945 62.0352 138.457C61.9395 137.969 61.8916 137.4 61.8916 136.748V135.23C61.8916 134.415 61.9645 133.731 62.1104 133.18C62.2607 132.628 62.4727 132.186 62.7461 131.854C63.0195 131.516 63.3477 131.275 63.7305 131.129C64.1178 130.983 64.5508 130.91 65.0293 130.91C65.4167 130.91 65.7721 130.958 66.0957 131.054C66.4238 131.145 66.7155 131.293 66.9707 131.498C67.2259 131.699 67.4424 131.967 67.6201 132.305C67.8024 132.637 67.9414 133.045 68.0371 133.528C68.1328 134.011 68.1807 134.579 68.1807 135.23ZM66.9092 136.953V135.019C66.9092 134.572 66.8818 134.18 66.8271 133.843C66.777 133.501 66.7018 133.209 66.6016 132.968C66.5013 132.726 66.3737 132.53 66.2188 132.38C66.0684 132.229 65.8929 132.12 65.6924 132.052C65.4964 131.979 65.2754 131.942 65.0293 131.942C64.7285 131.942 64.4619 131.999 64.2295 132.113C63.9971 132.223 63.8011 132.398 63.6416 132.64C63.4867 132.881 63.3682 133.198 63.2861 133.59C63.2041 133.982 63.1631 134.458 63.1631 135.019V136.953C63.1631 137.4 63.1882 137.794 63.2383 138.136C63.293 138.478 63.3727 138.774 63.4775 139.024C63.5824 139.271 63.71 139.473 63.8604 139.633C64.0107 139.792 64.1839 139.911 64.3799 139.988C64.5804 140.061 64.8014 140.098 65.043 140.098C65.3529 140.098 65.624 140.038 65.8564 139.92C66.0889 139.801 66.2826 139.617 66.4375 139.366C66.597 139.111 66.7155 138.785 66.793 138.389C66.8704 137.988 66.9092 137.509 66.9092 136.953ZM76.0557 135.23V136.748C76.0557 137.564 75.9827 138.252 75.8369 138.812C75.6911 139.373 75.4814 139.824 75.208 140.166C74.9346 140.508 74.6042 140.756 74.2168 140.911C73.834 141.062 73.401 141.137 72.918 141.137C72.5352 141.137 72.182 141.089 71.8584 140.993C71.5348 140.897 71.2432 140.745 70.9834 140.535C70.7282 140.321 70.5094 140.043 70.3271 139.701C70.1449 139.359 70.0059 138.945 69.9102 138.457C69.8145 137.969 69.7666 137.4 69.7666 136.748V135.23C69.7666 134.415 69.8395 133.731 69.9854 133.18C70.1357 132.628 70.3477 132.186 70.6211 131.854C70.8945 131.516 71.2227 131.275 71.6055 131.129C71.9928 130.983 72.4258 130.91 72.9043 130.91C73.2917 130.91 73.6471 130.958 73.9707 131.054C74.2988 131.145 74.5905 131.293 74.8457 131.498C75.1009 131.699 75.3174 131.967 75.4951 132.305C75.6774 132.637 75.8164 133.045 75.9121 133.528C76.0078 134.011 76.0557 134.579 76.0557 135.23ZM74.7842 136.953V135.019C74.7842 134.572 74.7568 134.18 74.7021 133.843C74.652 133.501 74.5768 133.209 74.4766 132.968C74.3763 132.726 74.2487 132.53 74.0938 132.38C73.9434 132.229 73.7679 132.12 73.5674 132.052C73.3714 131.979 73.1504 131.942 72.9043 131.942C72.6035 131.942 72.3369 131.999 72.1045 132.113C71.8721 132.223 71.6761 132.398 71.5166 132.64C71.3617 132.881 71.2432 133.198 71.1611 133.59C71.0791 133.982 71.0381 134.458 71.0381 135.019V136.953C71.0381 137.4 71.0632 137.794 71.1133 138.136C71.168 138.478 71.2477 138.774 71.3525 139.024C71.4574 139.271 71.585 139.473 71.7354 139.633C71.8857 139.792 72.0589 139.911 72.2549 139.988C72.4554 140.061 72.6764 140.098 72.918 140.098C73.2279 140.098 73.499 140.038 73.7314 139.92C73.9639 139.801 74.1576 139.617 74.3125 139.366C74.472 139.111 74.5905 138.785 74.668 138.389C74.7454 137.988 74.7842 137.509 74.7842 136.953ZM83.9307 135.23V136.748C83.9307 137.564 83.8577 138.252 83.7119 138.812C83.5661 139.373 83.3564 139.824 83.083 140.166C82.8096 140.508 82.4792 140.756 82.0918 140.911C81.709 141.062 81.276 141.137 80.793 141.137C80.4102 141.137 80.057 141.089 79.7334 140.993C79.4098 140.897 79.1182 140.745 78.8584 140.535C78.6032 140.321 78.3844 140.043 78.2021 139.701C78.0199 139.359 77.8809 138.945 77.7852 138.457C77.6895 137.969 77.6416 137.4 77.6416 136.748V135.23C77.6416 134.415 77.7145 133.731 77.8604 133.18C78.0107 132.628 78.2227 132.186 78.4961 131.854C78.7695 131.516 79.0977 131.275 79.4805 131.129C79.8678 130.983 80.3008 130.91 80.7793 130.91C81.1667 130.91 81.5221 130.958 81.8457 131.054C82.1738 131.145 82.4655 131.293 82.7207 131.498C82.9759 131.699 83.1924 131.967 83.3701 132.305C83.5524 132.637 83.6914 133.045 83.7871 133.528C83.8828 134.011 83.9307 134.579 83.9307 135.23ZM82.6592 136.953V135.019C82.6592 134.572 82.6318 134.18 82.5771 133.843C82.527 133.501 82.4518 133.209 82.3516 132.968C82.2513 132.726 82.1237 132.53 81.9688 132.38C81.8184 132.229 81.6429 132.12 81.4424 132.052C81.2464 131.979 81.0254 131.942 80.7793 131.942C80.4785 131.942 80.2119 131.999 79.9795 132.113C79.7471 132.223 79.5511 132.398 79.3916 132.64C79.2367 132.881 79.1182 133.198 79.0361 133.59C78.9541 133.982 78.9131 134.458 78.9131 135.019V136.953C78.9131 137.4 78.9382 137.794 78.9883 138.136C79.043 138.478 79.1227 138.774 79.2275 139.024C79.3324 139.271 79.46 139.473 79.6104 139.633C79.7607 139.792 79.9339 139.911 80.1299 139.988C80.3304 140.061 80.5514 140.098 80.793 140.098C81.1029 140.098 81.374 140.038 81.6064 139.92C81.8389 139.801 82.0326 139.617 82.1875 139.366C82.347 139.111 82.4655 138.785 82.543 138.389C82.6204 137.988 82.6592 137.509 82.6592 136.953Z" fill="#71717A"/>
<path d="M28.9834 168.992V179H27.7188V170.571L25.1689 171.501V170.359L28.7852 168.992H28.9834ZM34.1172 168.5V169.375C34.1172 169.648 34.0693 169.938 33.9736 170.243C33.8825 170.544 33.748 170.836 33.5703 171.118C33.3926 171.396 33.1784 171.64 32.9277 171.85L32.2031 171.351C32.4173 171.05 32.5791 170.742 32.6885 170.428C32.8024 170.109 32.8594 169.765 32.8594 169.396V168.5H34.1172ZM41.7529 173.23V174.748C41.7529 175.564 41.68 176.252 41.5342 176.812C41.3883 177.373 41.1787 177.824 40.9053 178.166C40.6318 178.508 40.3014 178.756 39.9141 178.911C39.5312 179.062 39.0983 179.137 38.6152 179.137C38.2324 179.137 37.8792 179.089 37.5557 178.993C37.2321 178.897 36.9404 178.745 36.6807 178.535C36.4255 178.321 36.2067 178.043 36.0244 177.701C35.8421 177.359 35.7031 176.945 35.6074 176.457C35.5117 175.969 35.4639 175.4 35.4639 174.748V173.23C35.4639 172.415 35.5368 171.731 35.6826 171.18C35.833 170.628 36.0449 170.186 36.3184 169.854C36.5918 169.516 36.9199 169.275 37.3027 169.129C37.6901 168.983 38.123 168.91 38.6016 168.91C38.9889 168.91 39.3444 168.958 39.668 169.054C39.9961 169.145 40.2878 169.293 40.543 169.498C40.7982 169.699 41.0146 169.967 41.1924 170.305C41.3747 170.637 41.5137 171.045 41.6094 171.528C41.7051 172.011 41.7529 172.579 41.7529 173.23ZM40.4814 174.953V173.019C40.4814 172.572 40.4541 172.18 40.3994 171.843C40.3493 171.501 40.2741 171.209 40.1738 170.968C40.0736 170.726 39.946 170.53 39.791 170.38C39.6406 170.229 39.4652 170.12 39.2646 170.052C39.0687 169.979 38.8477 169.942 38.6016 169.942C38.3008 169.942 38.0342 169.999 37.8018 170.113C37.5693 170.223 37.3734 170.398 37.2139 170.64C37.0589 170.881 36.9404 171.198 36.8584 171.59C36.7764 171.982 36.7354 172.458 36.7354 173.019V174.953C36.7354 175.4 36.7604 175.794 36.8105 176.136C36.8652 176.478 36.945 176.774 37.0498 177.024C37.1546 177.271 37.2822 177.473 37.4326 177.633C37.583 177.792 37.7562 177.911 37.9521 177.988C38.1527 178.061 38.3737 178.098 38.6152 178.098C38.9251 178.098 39.1963 178.038 39.4287 177.92C39.6611 177.801 39.8548 177.617 40.0098 177.366C40.1693 177.111 40.2878 176.785 40.3652 176.389C40.4427 175.988 40.4814 175.509 40.4814 174.953ZM49.6279 173.23V174.748C49.6279 175.564 49.555 176.252 49.4092 176.812C49.2633 177.373 49.0537 177.824 48.7803 178.166C48.5068 178.508 48.1764 178.756 47.7891 178.911C47.4062 179.062 46.9733 179.137 46.4902 179.137C46.1074 179.137 45.7542 179.089 45.4307 178.993C45.1071 178.897 44.8154 178.745 44.5557 178.535C44.3005 178.321 44.0817 178.043 43.8994 177.701C43.7171 177.359 43.5781 176.945 43.4824 176.457C43.3867 175.969 43.3389 175.4 43.3389 174.748V173.23C43.3389 172.415 43.4118 171.731 43.5576 171.18C43.708 170.628 43.9199 170.186 44.1934 169.854C44.4668 169.516 44.7949 169.275 45.1777 169.129C45.5651 168.983 45.998 168.91 46.4766 168.91C46.8639 168.91 47.2194 168.958 47.543 169.054C47.8711 169.145 48.1628 169.293 48.418 169.498C48.6732 169.699 48.8896 169.967 49.0674 170.305C49.2497 170.637 49.3887 171.045 49.4844 171.528C49.5801 172.011 49.6279 172.579 49.6279 173.23ZM48.3564 174.953V173.019C48.3564 172.572 48.3291 172.18 48.2744 171.843C48.2243 171.501 48.1491 171.209 48.0488 170.968C47.9486 170.726 47.821 170.53 47.666 170.38C47.5156 170.229 47.3402 170.12 47.1396 170.052C46.9437 169.979 46.7227 169.942 46.4766 169.942C46.1758 169.942 45.9092 169.999 45.6768 170.113C45.4443 170.223 45.2484 170.398 45.0889 170.64C44.9339 170.881 44.8154 171.198 44.7334 171.59C44.6514 171.982 44.6104 172.458 44.6104 173.019V174.953C44.6104 175.4 44.6354 175.794 44.6855 176.136C44.7402 176.478 44.82 176.774 44.9248 177.024C45.0296 177.271 45.1572 177.473 45.3076 177.633C45.458 177.792 45.6312 177.911 45.8271 177.988C46.0277 178.061 46.2487 178.098 46.4902 178.098C46.8001 178.098 47.0713 178.038 47.3037 177.92C47.5361 177.801 47.7298 177.617 47.8848 177.366C48.0443 177.111 48.1628 176.785 48.2402 176.389C48.3177 175.988 48.3564 175.509 48.3564 174.953ZM57.5029 173.23V174.748C57.5029 175.564 57.43 176.252 57.2842 176.812C57.1383 177.373 56.9287 177.824 56.6553 178.166C56.3818 178.508 56.0514 178.756 55.6641 178.911C55.2812 179.062 54.8483 179.137 54.3652 179.137C53.9824 179.137 53.6292 179.089 53.3057 178.993C52.9821 178.897 52.6904 178.745 52.4307 178.535C52.1755 178.321 51.9567 178.043 51.7744 177.701C51.5921 177.359 51.4531 176.945 51.3574 176.457C51.2617 175.969 51.2139 175.4 51.2139 174.748V173.23C51.2139 172.415 51.2868 171.731 51.4326 171.18C51.583 170.628 51.7949 170.186 52.0684 169.854C52.3418 169.516 52.6699 169.275 53.0527 169.129C53.4401 168.983 53.873 168.91 54.3516 168.91C54.7389 168.91 55.0944 168.958 55.418 169.054C55.7461 169.145 56.0378 169.293 56.293 169.498C56.5482 169.699 56.7646 169.967 56.9424 170.305C57.1247 170.637 57.2637 171.045 57.3594 171.528C57.4551 172.011 57.5029 172.579 57.5029 173.23ZM56.2314 174.953V173.019C56.2314 172.572 56.2041 172.18 56.1494 171.843C56.0993 171.501 56.0241 171.209 55.9238 170.968C55.8236 170.726 55.696 170.53 55.541 170.38C55.3906 170.229 55.2152 170.12 55.0146 170.052C54.8187 169.979 54.5977 169.942 54.3516 169.942C54.0508 169.942 53.7842 169.999 53.5518 170.113C53.3193 170.223 53.1234 170.398 52.9639 170.64C52.8089 170.881 52.6904 171.198 52.6084 171.59C52.5264 171.982 52.4854 172.458 52.4854 173.019V174.953C52.4854 175.4 52.5104 175.794 52.5605 176.136C52.6152 176.478 52.695 176.774 52.7998 177.024C52.9046 177.271 53.0322 177.473 53.1826 177.633C53.333 177.792 53.5062 177.911 53.7021 177.988C53.9027 178.061 54.1237 178.098 54.3652 178.098C54.6751 178.098 54.9463 178.038 55.1787 177.92C55.4111 177.801 55.6048 177.617 55.7598 177.366C55.9193 177.111 56.0378 176.785 56.1152 176.389C56.1927 175.988 56.2314 175.509 56.2314 174.953ZM60.5449 168.5V169.375C60.5449 169.648 60.4971 169.938 60.4014 170.243C60.3102 170.544 60.1758 170.836 59.998 171.118C59.8203 171.396 59.6061 171.64 59.3555 171.85L58.6309 171.351C58.8451 171.05 59.0068 170.742 59.1162 170.428C59.2301 170.109 59.2871 169.765 59.2871 169.396V168.5H60.5449ZM68.1807 173.23V174.748C68.1807 175.564 68.1077 176.252 67.9619 176.812C67.8161 177.373 67.6064 177.824 67.333 178.166C67.0596 178.508 66.7292 178.756 66.3418 178.911C65.959 179.062 65.526 179.137 65.043 179.137C64.6602 179.137 64.307 179.089 63.9834 178.993C63.6598 178.897 63.3682 178.745 63.1084 178.535C62.8532 178.321 62.6344 178.043 62.4521 177.701C62.2699 177.359 62.1309 176.945 62.0352 176.457C61.9395 175.969 61.8916 175.4 61.8916 174.748V173.23C61.8916 172.415 61.9645 171.731 62.1104 171.18C62.2607 170.628 62.4727 170.186 62.7461 169.854C63.0195 169.516 63.3477 169.275 63.7305 169.129C64.1178 168.983 64.5508 168.91 65.0293 168.91C65.4167 168.91 65.7721 168.958 66.0957 169.054C66.4238 169.145 66.7155 169.293 66.9707 169.498C67.2259 169.699 67.4424 169.967 67.6201 170.305C67.8024 170.637 67.9414 171.045 68.0371 171.528C68.1328 172.011 68.1807 172.579 68.1807 173.23ZM66.9092 174.953V173.019C66.9092 172.572 66.8818 172.18 66.8271 171.843C66.777 171.501 66.7018 171.209 66.6016 170.968C66.5013 170.726 66.3737 170.53 66.2188 170.38C66.0684 170.229 65.8929 170.12 65.6924 170.052C65.4964 169.979 65.2754 169.942 65.0293 169.942C64.7285 169.942 64.4619 169.999 64.2295 170.113C63.9971 170.223 63.8011 170.398 63.6416 170.64C63.4867 170.881 63.3682 171.198 63.2861 171.59C63.2041 171.982 63.1631 172.458 63.1631 173.019V174.953C63.1631 175.4 63.1882 175.794 63.2383 176.136C63.293 176.478 63.3727 176.774 63.4775 177.024C63.5824 177.271 63.71 177.473 63.8604 177.633C64.0107 177.792 64.1839 177.911 64.3799 177.988C64.5804 178.061 64.8014 178.098 65.043 178.098C65.3529 178.098 65.624 178.038 65.8564 177.92C66.0889 177.801 66.2826 177.617 66.4375 177.366C66.597 177.111 66.7155 176.785 66.793 176.389C66.8704 175.988 66.9092 175.509 66.9092 174.953ZM76.0557 173.23V174.748C76.0557 175.564 75.9827 176.252 75.8369 176.812C75.6911 177.373 75.4814 177.824 75.208 178.166C74.9346 178.508 74.6042 178.756 74.2168 178.911C73.834 179.062 73.401 179.137 72.918 179.137C72.5352 179.137 72.182 179.089 71.8584 178.993C71.5348 178.897 71.2432 178.745 70.9834 178.535C70.7282 178.321 70.5094 178.043 70.3271 177.701C70.1449 177.359 70.0059 176.945 69.9102 176.457C69.8145 175.969 69.7666 175.4 69.7666 174.748V173.23C69.7666 172.415 69.8395 171.731 69.9854 171.18C70.1357 170.628 70.3477 170.186 70.6211 169.854C70.8945 169.516 71.2227 169.275 71.6055 169.129C71.9928 168.983 72.4258 168.91 72.9043 168.91C73.2917 168.91 73.6471 168.958 73.9707 169.054C74.2988 169.145 74.5905 169.293 74.8457 169.498C75.1009 169.699 75.3174 169.967 75.4951 170.305C75.6774 170.637 75.8164 171.045 75.9121 171.528C76.0078 172.011 76.0557 172.579 76.0557 173.23ZM74.7842 174.953V173.019C74.7842 172.572 74.7568 172.18 74.7021 171.843C74.652 171.501 74.5768 171.209 74.4766 170.968C74.3763 170.726 74.2487 170.53 74.0938 170.38C73.9434 170.229 73.7679 170.12 73.5674 170.052C73.3714 169.979 73.1504 169.942 72.9043 169.942C72.6035 169.942 72.3369 169.999 72.1045 170.113C71.8721 170.223 71.6761 170.398 71.5166 170.64C71.3617 170.881 71.2432 171.198 71.1611 171.59C71.0791 171.982 71.0381 172.458 71.0381 173.019V174.953C71.0381 175.4 71.0632 175.794 71.1133 176.136C71.168 176.478 71.2477 176.774 71.3525 177.024C71.4574 177.271 71.585 177.473 71.7354 177.633C71.8857 177.792 72.0589 177.911 72.2549 177.988C72.4554 178.061 72.6764 178.098 72.918 178.098C73.2279 178.098 73.499 178.038 73.7314 177.92C73.9639 177.801 74.1576 177.617 74.3125 177.366C74.472 177.111 74.5905 176.785 74.668 176.389C74.7454 175.988 74.7842 175.509 74.7842 174.953ZM83.9307 173.23V174.748C83.9307 175.564 83.8577 176.252 83.7119 176.812C83.5661 177.373 83.3564 177.824 83.083 178.166C82.8096 178.508 82.4792 178.756 82.0918 178.911C81.709 179.062 81.276 179.137 80.793 179.137C80.4102 179.137 80.057 179.089 79.7334 178.993C79.4098 178.897 79.1182 178.745 78.8584 178.535C78.6032 178.321 78.3844 178.043 78.2021 177.701C78.0199 177.359 77.8809 176.945 77.7852 176.457C77.6895 175.969 77.6416 175.4 77.6416 174.748V173.23C77.6416 172.415 77.7145 171.731 77.8604 171.18C78.0107 170.628 78.2227 170.186 78.4961 169.854C78.7695 169.516 79.0977 169.275 79.4805 169.129C79.8678 168.983 80.3008 168.91 80.7793 168.91C81.1667 168.91 81.5221 168.958 81.8457 169.054C82.1738 169.145 82.4655 169.293 82.7207 169.498C82.9759 169.699 83.1924 169.967 83.3701 170.305C83.5524 170.637 83.6914 171.045 83.7871 171.528C83.8828 172.011 83.9307 172.579 83.9307 173.23ZM82.6592 174.953V173.019C82.6592 172.572 82.6318 172.18 82.5771 171.843C82.527 171.501 82.4518 171.209 82.3516 170.968C82.2513 170.726 82.1237 170.53 81.9688 170.38C81.8184 170.229 81.6429 170.12 81.4424 170.052C81.2464 169.979 81.0254 169.942 80.7793 169.942C80.4785 169.942 80.2119 169.999 79.9795 170.113C79.7471 170.223 79.5511 170.398 79.3916 170.64C79.2367 170.881 79.1182 171.198 79.0361 171.59C78.9541 171.982 78.9131 172.458 78.9131 173.019V174.953C78.9131 175.4 78.9382 175.794 78.9883 176.136C79.043 176.478 79.1227 176.774 79.2275 177.024C79.3324 177.271 79.46 177.473 79.6104 177.633C79.7607 177.792 79.9339 177.911 80.1299 177.988C80.3304 178.061 80.5514 178.098 80.793 178.098C81.1029 178.098 81.374 178.038 81.6064 177.92C81.8389 177.801 82.0326 177.617 82.1875 177.366C82.347 177.111 82.4655 176.785 82.543 176.389C82.6204 175.988 82.6592 175.509 82.6592 174.953Z" fill="#71717A"/>
<path d="M31.0752 211.23V212.748C31.0752 213.564 31.0023 214.252 30.8564 214.812C30.7106 215.373 30.501 215.824 30.2275 216.166C29.9541 216.508 29.6237 216.756 29.2363 216.911C28.8535 217.062 28.4206 217.137 27.9375 217.137C27.5547 217.137 27.2015 217.089 26.8779 216.993C26.5544 216.897 26.2627 216.745 26.0029 216.535C25.7477 216.321 25.529 216.043 25.3467 215.701C25.1644 215.359 25.0254 214.945 24.9297 214.457C24.834 213.969 24.7861 213.4 24.7861 212.748V211.23C24.7861 210.415 24.859 209.731 25.0049 209.18C25.1553 208.628 25.3672 208.186 25.6406 207.854C25.9141 207.516 26.2422 207.275 26.625 207.129C27.0124 206.983 27.4453 206.91 27.9238 206.91C28.3112 206.91 28.6667 206.958 28.9902 207.054C29.3184 207.145 29.61 207.293 29.8652 207.498C30.1204 207.699 30.3369 207.967 30.5146 208.305C30.6969 208.637 30.8359 209.045 30.9316 209.528C31.0273 210.011 31.0752 210.579 31.0752 211.23ZM29.8037 212.953V211.019C29.8037 210.572 29.7764 210.18 29.7217 209.843C29.6715 209.501 29.5964 209.209 29.4961 208.968C29.3958 208.726 29.2682 208.53 29.1133 208.38C28.9629 208.229 28.7874 208.12 28.5869 208.052C28.391 207.979 28.1699 207.942 27.9238 207.942C27.623 207.942 27.3564 207.999 27.124 208.113C26.8916 208.223 26.6956 208.398 26.5361 208.64C26.3812 208.881 26.2627 209.198 26.1807 209.59C26.0986 209.982 26.0576 210.458 26.0576 211.019V212.953C26.0576 213.4 26.0827 213.794 26.1328 214.136C26.1875 214.478 26.2673 214.774 26.3721 215.024C26.4769 215.271 26.6045 215.473 26.7549 215.633C26.9053 215.792 27.0785 215.911 27.2744 215.988C27.4749 216.061 27.696 216.098 27.9375 216.098C28.2474 216.098 28.5186 216.038 28.751 215.92C28.9834 215.801 29.1771 215.617 29.332 215.366C29.4915 215.111 29.61 214.785 29.6875 214.389C29.765 213.988 29.8037 213.509 29.8037 212.953Z" fill="#71717A"/>
<path d="M102 96C102 91.5817 105.582 88 110 88C114.418 88 118 91.5817 118 96V218H102V96Z" fill="#84CC16"/>
<path d="M118 131C118 126.582 121.582 123 126 123C130.418 123 134 126.582 134 131V218H118V131Z" fill="#F97316"/>
<path d="M113.832 242.095V235.047H115.145V242.095C115.145 242.751 115.01 243.305 114.741 243.756C114.472 244.207 114.101 244.551 113.627 244.788C113.158 245.021 112.618 245.137 112.007 245.137C111.396 245.137 110.854 245.032 110.38 244.822C109.906 244.613 109.535 244.294 109.266 243.865C108.997 243.437 108.862 242.897 108.862 242.245H110.182C110.182 242.664 110.259 243.008 110.414 243.277C110.569 243.546 110.783 243.744 111.057 243.872C111.335 244 111.651 244.063 112.007 244.063C112.353 244.063 112.663 243.991 112.937 243.845C113.215 243.694 113.433 243.473 113.593 243.182C113.752 242.885 113.832 242.523 113.832 242.095ZM121.714 243.291V237.604H122.985V245H121.775L121.714 243.291ZM121.953 241.732L122.479 241.719C122.479 242.211 122.427 242.667 122.322 243.086C122.222 243.501 122.058 243.861 121.83 244.166C121.602 244.471 121.304 244.711 120.935 244.884C120.565 245.052 120.117 245.137 119.588 245.137C119.228 245.137 118.897 245.084 118.597 244.979C118.3 244.875 118.045 244.713 117.831 244.494C117.617 244.275 117.451 243.991 117.332 243.64C117.218 243.289 117.161 242.867 117.161 242.375V237.604H118.426V242.389C118.426 242.721 118.462 242.997 118.535 243.216C118.613 243.43 118.715 243.601 118.843 243.729C118.975 243.852 119.121 243.938 119.28 243.988C119.444 244.038 119.613 244.063 119.786 244.063C120.324 244.063 120.75 243.961 121.064 243.756C121.379 243.546 121.604 243.266 121.741 242.915C121.882 242.56 121.953 242.165 121.953 241.732ZM126.287 234.5V245H125.016V234.5H126.287Z" fill="#71717A"/>
<path d="M174 96C174 91.5817 177.582 88 182 88C186.418 88 190 91.5817 190 96V218H174V96Z" fill="#84CC16"/>
<path d="M190 131C190 126.582 193.582 123 198 123C202.418 123 206 126.582 206 131V218H190V131Z" fill="#F97316"/>
<path d="M185.832 242.095V235.047H187.145V242.095C187.145 242.751 187.01 243.305 186.741 243.756C186.472 244.207 186.101 244.551 185.627 244.788C185.158 245.021 184.618 245.137 184.007 245.137C183.396 245.137 182.854 245.032 182.38 244.822C181.906 244.613 181.535 244.294 181.266 243.865C180.997 243.437 180.862 242.897 180.862 242.245H182.182C182.182 242.664 182.259 243.008 182.414 243.277C182.569 243.546 182.783 243.744 183.057 243.872C183.335 244 183.651 244.063 184.007 244.063C184.353 244.063 184.663 243.991 184.937 243.845C185.215 243.694 185.433 243.473 185.593 243.182C185.752 242.885 185.832 242.523 185.832 242.095ZM193.714 243.291V237.604H194.985V245H193.775L193.714 243.291ZM193.953 241.732L194.479 241.719C194.479 242.211 194.427 242.667 194.322 243.086C194.222 243.501 194.058 243.861 193.83 244.166C193.602 244.471 193.304 244.711 192.935 244.884C192.565 245.052 192.117 245.137 191.588 245.137C191.228 245.137 190.897 245.084 190.597 244.979C190.3 244.875 190.045 244.713 189.831 244.494C189.617 244.275 189.451 243.991 189.332 243.64C189.218 243.289 189.161 242.867 189.161 242.375V237.604H190.426V242.389C190.426 242.721 190.462 242.997 190.535 243.216C190.613 243.43 190.715 243.601 190.843 243.729C190.975 243.852 191.121 243.938 191.28 243.988C191.444 244.038 191.613 244.063 191.786 244.063C192.324 244.063 192.75 243.961 193.064 243.756C193.379 243.546 193.604 243.266 193.741 242.915C193.882 242.56 193.953 242.165 193.953 241.732ZM198.287 234.5V245H197.016V234.5H198.287Z" fill="#71717A"/>
<path d="M246 96C246 91.5817 249.582 88 254 88C258.418 88 262 91.5817 262 96V218H246V96Z" fill="#84CC16"/>
<path d="M262 131C262 126.582 265.582 123 270 123C274.418 123 278 126.582 278 131V218H262V131Z" fill="#F97316"/>
<path d="M257.832 242.095V235.047H259.145V242.095C259.145 242.751 259.01 243.305 258.741 243.756C258.472 244.207 258.101 244.551 257.627 244.788C257.158 245.021 256.618 245.137 256.007 245.137C255.396 245.137 254.854 245.032 254.38 244.822C253.906 244.613 253.535 244.294 253.266 243.865C252.997 243.437 252.862 242.897 252.862 242.245H254.182C254.182 242.664 254.259 243.008 254.414 243.277C254.569 243.546 254.783 243.744 255.057 243.872C255.335 244 255.651 244.063 256.007 244.063C256.353 244.063 256.663 243.991 256.937 243.845C257.215 243.694 257.433 243.473 257.593 243.182C257.752 242.885 257.832 242.523 257.832 242.095ZM265.714 243.291V237.604H266.985V245H265.775L265.714 243.291ZM265.953 241.732L266.479 241.719C266.479 242.211 266.427 242.667 266.322 243.086C266.222 243.501 266.058 243.861 265.83 244.166C265.602 244.471 265.304 244.711 264.935 244.884C264.565 245.052 264.117 245.137 263.588 245.137C263.228 245.137 262.897 245.084 262.597 244.979C262.3 244.875 262.045 244.713 261.831 244.494C261.617 244.275 261.451 243.991 261.332 243.64C261.218 243.289 261.161 242.867 261.161 242.375V237.604H262.426V242.389C262.426 242.721 262.462 242.997 262.535 243.216C262.613 243.43 262.715 243.601 262.843 243.729C262.975 243.852 263.121 243.938 263.28 243.988C263.444 244.038 263.613 244.063 263.786 244.063C264.324 244.063 264.75 243.961 265.064 243.756C265.379 243.546 265.604 243.266 265.741 242.915C265.882 242.56 265.953 242.165 265.953 241.732ZM270.287 234.5V245H269.016V234.5H270.287Z" fill="#71717A"/>
<path d="M318 96C318 91.5817 321.582 88 326 88C330.418 88 334 91.5817 334 96V218H318V96Z" fill="#84CC16"/>
<path d="M334 131C334 126.582 337.582 123 342 123C346.418 123 350 126.582 350 131V218H334V131Z" fill="#F97316"/>
<path d="M329.832 242.095V235.047H331.145V242.095C331.145 242.751 331.01 243.305 330.741 243.756C330.472 244.207 330.101 244.551 329.627 244.788C329.158 245.021 328.618 245.137 328.007 245.137C327.396 245.137 326.854 245.032 326.38 244.822C325.906 244.613 325.535 244.294 325.266 243.865C324.997 243.437 324.862 242.897 324.862 242.245H326.182C326.182 242.664 326.259 243.008 326.414 243.277C326.569 243.546 326.783 243.744 327.057 243.872C327.335 244 327.651 244.063 328.007 244.063C328.353 244.063 328.663 243.991 328.937 243.845C329.215 243.694 329.433 243.473 329.593 243.182C329.752 242.885 329.832 242.523 329.832 242.095ZM337.714 243.291V237.604H338.985V245H337.775L337.714 243.291ZM337.953 241.732L338.479 241.719C338.479 242.211 338.427 242.667 338.322 243.086C338.222 243.501 338.058 243.861 337.83 244.166C337.602 244.471 337.304 244.711 336.935 244.884C336.565 245.052 336.117 245.137 335.588 245.137C335.228 245.137 334.897 245.084 334.597 244.979C334.3 244.875 334.045 244.713 333.831 244.494C333.617 244.275 333.451 243.991 333.332 243.64C333.218 243.289 333.161 242.867 333.161 242.375V237.604H334.426V242.389C334.426 242.721 334.462 242.997 334.535 243.216C334.613 243.43 334.715 243.601 334.843 243.729C334.975 243.852 335.121 243.938 335.28 243.988C335.444 244.038 335.613 244.063 335.786 244.063C336.324 244.063 336.75 243.961 337.064 243.756C337.379 243.546 337.604 243.266 337.741 242.915C337.882 242.56 337.953 242.165 337.953 241.732ZM342.287 234.5V245H341.016V234.5H342.287Z" fill="#71717A"/>
<path d="M390 96C390 91.5817 393.582 88 398 88C402.418 88 406 91.5817 406 96V218H390V96Z" fill="#84CC16"/>
<path d="M406 131C406 126.582 409.582 123 414 123C418.418 123 422 126.582 422 131V218H406V131Z" fill="#F97316"/>
<path d="M401.832 242.095V235.047H403.145V242.095C403.145 242.751 403.01 243.305 402.741 243.756C402.472 244.207 402.101 244.551 401.627 244.788C401.158 245.021 400.618 245.137 400.007 245.137C399.396 245.137 398.854 245.032 398.38 244.822C397.906 244.613 397.535 244.294 397.266 243.865C396.997 243.437 396.862 242.897 396.862 242.245H398.182C398.182 242.664 398.259 243.008 398.414 243.277C398.569 243.546 398.783 243.744 399.057 243.872C399.335 244 399.651 244.063 400.007 244.063C400.353 244.063 400.663 243.991 400.937 243.845C401.215 243.694 401.433 243.473 401.593 243.182C401.752 242.885 401.832 242.523 401.832 242.095ZM409.714 243.291V237.604H410.985V245H409.775L409.714 243.291ZM409.953 241.732L410.479 241.719C410.479 242.211 410.427 242.667 410.322 243.086C410.222 243.501 410.058 243.861 409.83 244.166C409.602 244.471 409.304 244.711 408.935 244.884C408.565 245.052 408.117 245.137 407.588 245.137C407.228 245.137 406.897 245.084 406.597 244.979C406.3 244.875 406.045 244.713 405.831 244.494C405.617 244.275 405.451 243.991 405.332 243.64C405.218 243.289 405.161 242.867 405.161 242.375V237.604H406.426V242.389C406.426 242.721 406.462 242.997 406.535 243.216C406.613 243.43 406.715 243.601 406.843 243.729C406.975 243.852 407.121 243.938 407.28 243.988C407.444 244.038 407.613 244.063 407.786 244.063C408.324 244.063 408.75 243.961 409.064 243.756C409.379 243.546 409.604 243.266 409.741 242.915C409.882 242.56 409.953 242.165 409.953 241.732ZM414.287 234.5V245H413.016V234.5H414.287Z" fill="#71717A"/>
<path d="M462 96C462 91.5817 465.582 88 470 88C474.418 88 478 91.5817 478 96V218H462V96Z" fill="#84CC16"/>
<path d="M478 131C478 126.582 481.582 123 486 123C490.418 123 494 126.582 494 131V218H478V131Z" fill="#F97316"/>
<path d="M473.832 242.095V235.047H475.145V242.095C475.145 242.751 475.01 243.305 474.741 243.756C474.472 244.207 474.101 244.551 473.627 244.788C473.158 245.021 472.618 245.137 472.007 245.137C471.396 245.137 470.854 245.032 470.38 244.822C469.906 244.613 469.535 244.294 469.266 243.865C468.997 243.437 468.862 242.897 468.862 242.245H470.182C470.182 242.664 470.259 243.008 470.414 243.277C470.569 243.546 470.783 243.744 471.057 243.872C471.335 244 471.651 244.063 472.007 244.063C472.353 244.063 472.663 243.991 472.937 243.845C473.215 243.694 473.433 243.473 473.593 243.182C473.752 242.885 473.832 242.523 473.832 242.095ZM481.714 243.291V237.604H482.985V245H481.775L481.714 243.291ZM481.953 241.732L482.479 241.719C482.479 242.211 482.427 242.667 482.322 243.086C482.222 243.501 482.058 243.861 481.83 244.166C481.602 244.471 481.304 244.711 480.935 244.884C480.565 245.052 480.117 245.137 479.588 245.137C479.228 245.137 478.897 245.084 478.597 244.979C478.3 244.875 478.045 244.713 477.831 244.494C477.617 244.275 477.451 243.991 477.332 243.64C477.218 243.289 477.161 242.867 477.161 242.375V237.604H478.426V242.389C478.426 242.721 478.462 242.997 478.535 243.216C478.613 243.43 478.715 243.601 478.843 243.729C478.975 243.852 479.121 243.938 479.28 243.988C479.444 244.038 479.613 244.063 479.786 244.063C480.324 244.063 480.75 243.961 481.064 243.756C481.379 243.546 481.604 243.266 481.741 242.915C481.882 242.56 481.953 242.165 481.953 241.732ZM486.287 234.5V245H485.016V234.5H486.287Z" fill="#71717A"/>
<path d="M534 96C534 91.5817 537.582 88 542 88C546.418 88 550 91.5817 550 96V218H534V96Z" fill="#84CC16"/>
<path d="M550 131C550 126.582 553.582 123 558 123C562.418 123 566 126.582 566 131V218H550V131Z" fill="#F97316"/>
<path d="M545.832 242.095V235.047H547.145V242.095C547.145 242.751 547.01 243.305 546.741 243.756C546.472 244.207 546.101 244.551 545.627 244.788C545.158 245.021 544.618 245.137 544.007 245.137C543.396 245.137 542.854 245.032 542.38 244.822C541.906 244.613 541.535 244.294 541.266 243.865C540.997 243.437 540.862 242.897 540.862 242.245H542.182C542.182 242.664 542.259 243.008 542.414 243.277C542.569 243.546 542.783 243.744 543.057 243.872C543.335 244 543.651 244.063 544.007 244.063C544.353 244.063 544.663 243.991 544.937 243.845C545.215 243.694 545.433 243.473 545.593 243.182C545.752 242.885 545.832 242.523 545.832 242.095ZM553.714 243.291V237.604H554.985V245H553.775L553.714 243.291ZM553.953 241.732L554.479 241.719C554.479 242.211 554.427 242.667 554.322 243.086C554.222 243.501 554.058 243.861 553.83 244.166C553.602 244.471 553.304 244.711 552.935 244.884C552.565 245.052 552.117 245.137 551.588 245.137C551.228 245.137 550.897 245.084 550.597 244.979C550.3 244.875 550.045 244.713 549.831 244.494C549.617 244.275 549.451 243.991 549.332 243.64C549.218 243.289 549.161 242.867 549.161 242.375V237.604H550.426V242.389C550.426 242.721 550.462 242.997 550.535 243.216C550.613 243.43 550.715 243.601 550.843 243.729C550.975 243.852 551.121 243.938 551.28 243.988C551.444 244.038 551.613 244.063 551.786 244.063C552.324 244.063 552.75 243.961 553.064 243.756C553.379 243.546 553.604 243.266 553.741 242.915C553.882 242.56 553.953 242.165 553.953 241.732ZM558.287 234.5V245H557.016V234.5H558.287Z" fill="#71717A"/>
</svg>
